<svg xmlns="http://www.w3.org/2000/svg" width="18" height="19" viewBox="0 0 18 19" fill="none">
  <g clip-path="url(#clip0_6_176)">
    <path fill-rule="evenodd" clip-rule="evenodd" d="M9.68113 12.4092C9.543 12.5473 9.35568 12.6248 9.16036 12.6248C8.96504 12.6248 8.77772 12.5473 8.63959 12.4092L4.47268 8.24225C4.40232 8.1743 4.34621 8.09302 4.3076 8.00315C4.269 7.91329 4.24868 7.81663 4.24783 7.71882C4.24698 7.62102 4.26562 7.52403 4.30265 7.4335C4.33969 7.34298 4.39439 7.26073 4.46355 7.19157C4.53271 7.12241 4.61495 7.06772 4.70547 7.03068C4.796 6.99364 4.89299 6.97501 4.9908 6.97586C5.0886 6.97671 5.18526 6.99703 5.27513 7.03563C5.36499 7.07424 5.44627 7.13035 5.51422 7.2007L9.16036 10.8468L12.8065 7.2007C12.9454 7.06653 13.1315 6.99228 13.3246 6.99396C13.5178 6.99564 13.7025 7.07311 13.8391 7.20968C13.9756 7.34625 14.0531 7.53099 14.0548 7.72413C14.0565 7.91726 13.9822 8.10332 13.848 8.24225L9.68113 12.4092Z" fill="#FCFCFC"/>
  </g>
  <defs>
    <clipPath id="clip0_6_176">
      <rect width="17.6783" height="17.6783" fill="white" transform="translate(0.321777 0.839844)"/>
    </clipPath>
  </defs>
</svg>