<svg xmlns="http://www.w3.org/2000/svg" width="241" height="138" viewBox="0 0 241 138" fill="none">
  <path d="M0.900146 137.313L30.801 137.279L60.7019 137.264L120.5 137.238L180.298 137.264L210.199 137.275L240.1 137.313L210.199 137.35L180.298 137.361L120.5 137.388L60.7019 137.361L30.801 137.35L0.900146 137.313Z" fill="#263238"/>
  <path d="M216.384 0.523438H23.8633V116.963H216.384V0.523438Z" fill="white"/>
  <path d="M216.384 116.963L23.8632 117.106H23.7245V116.963L23.6758 0.527263V0.339844H23.8632L216.384 0.414813H216.493V0.527263L216.384 116.963ZM216.384 116.963L216.275 0.527263L216.384 0.635967L23.8632 0.710933L24.0506 0.527263L24.0019 116.963L23.8632 116.825L216.384 116.963Z" fill="#C7C7C7"/>
  <path d="M216.384 0.523438H23.8633V19.494H216.384V0.523438Z" fill="#525CEB"/>
  <path d="M35.8091 12.8521H31.8508V13.5118H35.8091V12.8521Z" fill="white"/>
  <path d="M35.8091 15.813H31.8508V16.4727H35.8091V15.813Z" fill="white"/>
  <path d="M35.8091 14.3511H31.8508V15.0108H35.8091V14.3511Z" fill="white"/>
  <path opacity="0.1" d="M208.393 12.7957H171.28V16.5328H208.393V12.7957Z" fill="black"/>
  <path d="M208.392 12.7957H204.655V16.5328H208.392V12.7957Z" fill="white"/>
  <path d="M207.71 15.7122L207.365 15.9746L206.713 15.1274L206.477 14.8201C206.525 14.8011 206.57 14.7759 206.612 14.7451C206.691 14.6848 206.753 14.6047 206.792 14.5127L207.039 14.8426L207.71 15.7122Z" fill="#525CEB"/>
  <path d="M207.028 13.7214C206.919 13.5794 206.771 13.4717 206.602 13.4109C206.434 13.3501 206.251 13.3388 206.076 13.3784C205.901 13.4179 205.741 13.5066 205.615 13.6339C205.489 13.7613 205.402 13.9222 205.364 14.0974C205.326 14.2727 205.339 14.4551 205.401 14.6233C205.464 14.7914 205.573 14.9382 205.716 15.0464C205.859 15.1546 206.03 15.2196 206.208 15.2339C206.387 15.2482 206.566 15.2111 206.725 15.127C206.771 15.1031 206.814 15.0755 206.856 15.0445C206.93 14.9866 206.996 14.9185 207.051 14.8421C207.167 14.6774 207.228 14.4797 207.224 14.278C207.22 14.0764 207.151 13.8813 207.028 13.7214ZM206.623 14.7447C206.582 14.7754 206.537 14.8006 206.489 14.8196C206.362 14.8725 206.22 14.8772 206.09 14.8327C205.96 14.7883 205.851 14.6977 205.783 14.5783C205.715 14.4588 205.693 14.3186 205.722 14.1842C205.75 14.0499 205.827 13.9305 205.938 13.8488C206.054 13.7608 206.2 13.7213 206.344 13.7388C206.489 13.7563 206.621 13.8293 206.713 13.9425C206.759 14.001 206.793 14.0681 206.812 14.1398C206.832 14.2115 206.837 14.2864 206.827 14.36C206.817 14.4337 206.793 14.5046 206.755 14.5688C206.718 14.6329 206.668 14.6889 206.608 14.7334L206.623 14.7447Z" fill="#525CEB"/>
  <path d="M172.265 13.53H172.063V15.7978H172.265V13.53Z" fill="white"/>
  <path d="M68.6377 16.6601H50.4805V12.6643H68.6377V16.6601ZM50.8553 16.2853H68.2628V13.0391H50.8553V16.2853Z" fill="white"/>
  <path d="M90.3256 16.6601H72.1685V12.6643H90.3256V16.6601ZM72.5433 16.2853H89.9508V13.0391H72.5433V16.2853Z" fill="white"/>
  <path opacity="0.1" d="M111.827 12.8521H94.0442V16.4767H111.827V12.8521Z" fill="black"/>
  <path d="M133.702 16.6601H115.545V12.6643H133.702V16.6601ZM115.92 16.2853H133.327V13.0391H115.92V16.2853Z" fill="white"/>
  <path d="M155.39 16.6601H137.233V12.6643H155.39V16.6601ZM137.608 16.2853H155.015V13.0391H137.608V16.2853Z" fill="white"/>
  <path d="M216.384 0.523438H23.8633V3.53714H216.384V0.523438Z" fill="#37474F"/>
  <path d="M26.2584 2.03044C26.2584 2.17871 26.2144 2.32365 26.132 2.44694C26.0497 2.57022 25.9326 2.66631 25.7956 2.72305C25.6586 2.77979 25.5079 2.79464 25.3625 2.76571C25.217 2.73679 25.0835 2.66539 24.9786 2.56054C24.8738 2.4557 24.8024 2.32212 24.7734 2.17669C24.7445 2.03127 24.7594 1.88054 24.8161 1.74355C24.8728 1.60656 24.9689 1.48948 25.0922 1.4071C25.2155 1.32473 25.3604 1.28076 25.5087 1.28076C25.7075 1.28076 25.8982 1.35974 26.0388 1.50034C26.1794 1.64093 26.2584 1.83161 26.2584 2.03044Z" fill="#C7C7C7"/>
  <path d="M29.3094 2.03044C29.3094 2.17871 29.2654 2.32365 29.1831 2.44694C29.1007 2.57022 28.9836 2.66631 28.8466 2.72305C28.7096 2.77979 28.5589 2.79464 28.4135 2.76571C28.2681 2.73679 28.1345 2.66539 28.0296 2.56054C27.9248 2.4557 27.8534 2.32212 27.8245 2.17669C27.7955 2.03127 27.8104 1.88054 27.8671 1.74355C27.9239 1.60656 28.02 1.48948 28.1432 1.4071C28.2665 1.32473 28.4115 1.28076 28.5597 1.28076C28.7586 1.28076 28.9492 1.35974 29.0898 1.50034C29.2304 1.64093 29.3094 1.83161 29.3094 2.03044Z" fill="white"/>
  <path d="M32.3607 2.03044C32.3607 2.17871 32.3167 2.32365 32.2343 2.44694C32.152 2.57022 32.0349 2.66631 31.8979 2.72305C31.7609 2.77979 31.6102 2.79464 31.4648 2.76571C31.3193 2.73679 31.1858 2.66539 31.0809 2.56054C30.9761 2.4557 30.9047 2.32212 30.8757 2.17669C30.8468 2.03127 30.8617 1.88054 30.9184 1.74355C30.9751 1.60656 31.0712 1.48948 31.1945 1.4071C31.3178 1.32473 31.4627 1.28076 31.611 1.28076C31.8098 1.28076 32.0005 1.35974 32.1411 1.50034C32.2817 1.64093 32.3607 1.83161 32.3607 2.03044Z" fill="#525CEB"/>
  <path d="M216.38 19.4978H213.074V116.967H216.38V19.4978Z" fill="#DBDBDB"/>
  <path d="M214.727 53.3006C214.622 53.3082 214.516 53.2948 214.415 53.2611C214.315 53.2274 214.223 53.1742 214.143 53.1044C214.064 53.0347 213.999 52.9498 213.952 52.8548C213.906 52.7598 213.879 52.6565 213.873 52.5509V20.802C213.879 20.6966 213.907 20.5936 213.953 20.4988C214 20.404 214.065 20.3193 214.144 20.2497C214.224 20.18 214.316 20.1267 214.416 20.0929C214.516 20.059 214.622 20.0452 214.727 20.0524C214.833 20.0452 214.938 20.059 215.038 20.0929C215.138 20.1267 215.231 20.18 215.31 20.2497C215.39 20.3193 215.455 20.404 215.501 20.4988C215.548 20.5936 215.575 20.6966 215.582 20.802V52.5509C215.576 52.6565 215.549 52.7598 215.502 52.8548C215.456 52.9498 215.391 53.0347 215.311 53.1044C215.232 53.1742 215.139 53.2274 215.039 53.2611C214.939 53.2948 214.833 53.3082 214.727 53.3006Z" fill="#A6A6A6"/>
  <path d="M31.9221 24.2024V38.4875H46.2072V24.2024H31.9221ZM33.0017 37.408V25.2819H45.1277V37.408H33.0017Z" fill="#EBEBEB"/>
  <path d="M101.788 26.6045H94.7151V33.674H101.788V26.6045Z" fill="#525CEB"/>
  <path d="M163.554 26.6045H156.481V33.674H163.554V26.6045Z" fill="#525CEB"/>
  <path d="M38.437 62.7803H31.3638V69.8497H38.437V62.7803Z" fill="#525CEB"/>
  <path d="M197.511 99.2373V113.522H211.796V99.2373H197.511ZM198.591 112.443V100.317H210.717V112.443H198.591Z" fill="#EBEBEB"/>
  <path d="M59.6827 66.3152H34.9021V70.9482H59.6827V66.3152Z" fill="#455A64"/>
  <path d="M102.995 73.2349H34.9021V74.9666H102.995V73.2349Z" fill="#DBDBDB"/>
  <path d="M102.995 77.0432H34.9021V78.775H102.995V77.0432Z" fill="#DBDBDB"/>
  <path d="M102.995 80.8516H34.9021V82.5833H102.995V80.8516Z" fill="#DBDBDB"/>
  <path d="M102.995 84.6599H34.9021V86.3917H102.995V84.6599Z" fill="#DBDBDB"/>
  <path d="M102.995 88.4722H34.9021V90.2039H102.995V88.4722Z" fill="#DBDBDB"/>
  <path d="M123.031 30.1394H98.25V34.7724H123.031V30.1394Z" fill="#455A64"/>
  <path d="M149.164 37.9658H98.25V39.6976H149.164V37.9658Z" fill="#DBDBDB"/>
  <path d="M149.164 41.7747H98.25V43.5064H149.164V41.7747Z" fill="#DBDBDB"/>
  <path d="M149.164 45.583H98.25V47.3148H149.164V45.583Z" fill="#DBDBDB"/>
  <path d="M149.164 49.3948H98.25V51.1265H149.164V49.3948Z" fill="#DBDBDB"/>
  <path d="M149.164 54.459H98.25V56.1907H149.164V54.459Z" fill="#DBDBDB"/>
  <path d="M149.164 58.2712H98.25V60.003H149.164V58.2712Z" fill="#DBDBDB"/>
  <path d="M205.334 30.1394H160.016V34.8549H205.334V30.1394Z" fill="#455A64"/>
  <path d="M205.221 34.8962H160.143V108.826H205.221V34.8962Z" fill="white"/>
  <path d="M205.345 108.945H160.016V34.7722H205.345V108.945ZM160.267 108.702H205.094V35.0159H160.267V108.702Z" fill="#DBDBDB"/>
  <path d="M160.259 108.871L160.023 108.777L205.101 34.8513L205.334 34.9413L160.259 108.871Z" fill="#DBDBDB"/>
  <path d="M205.101 108.871L160.023 34.9413L160.259 34.8513L205.334 108.777L205.101 108.871Z" fill="#DBDBDB"/>
  <path d="M68.8174 30.2224H14.8069V59.9209H68.8174V30.2224Z" fill="white"/>
  <path d="M14.7246 60.003V59.928V30.1545H14.7958H68.8963V60.003H68.8063H14.7246ZM14.8933 30.3045V59.8493H68.7201V30.3007L14.8933 30.3045Z" fill="#DBDBDB"/>
  <path d="M14.8933 30.3042C19.4364 32.6844 23.9494 35.1209 28.4587 37.5573L41.9529 44.9004L55.3796 52.3222L62.0705 56.0706L68.7314 59.849L61.9356 56.243L55.166 52.5884L41.6718 45.2453L28.2488 37.8197C23.792 35.3308 19.3239 32.8381 14.8933 30.3042Z" fill="#DBDBDB"/>
  <path d="M68.7312 30.3042C64.3044 32.8381 59.8438 35.3308 55.3795 37.801L41.9527 45.2265L28.4585 52.5696L21.7114 56.2131L14.9119 59.819L21.5428 56.0594L28.2336 52.311L41.6604 44.8892L55.1546 37.5461C59.6751 35.1209 64.1882 32.6844 68.7312 30.3042Z" fill="#DBDBDB"/>
  <path d="M41.2444 102.303V123.186H151.451V102.303H41.2444Z" fill="white"/>
  <path d="M151.631 102.243V123.234H41.0532V102.243H151.631ZM151.256 123.129V102.36H41.4093V123.129H151.256Z" fill="#525CEB"/>
  <path d="M151.518 123.133L151.379 123.238L41.1768 102.356L41.3117 102.247L151.518 123.133Z" fill="#525CEB"/>
  <path d="M151.518 102.356L41.3117 123.238L41.1768 123.133L151.379 102.247L151.518 102.356Z" fill="#525CEB"/>
  <path d="M111.054 90.3237H147.458V67.1325H111.054V90.3237Z" fill="#525CEB"/>
  <path d="M109.506 92.4611H108.85V91.8052H109.038V92.2737H109.506V92.4611Z" fill="#263238"/>
  <path d="M147.863 92.4606H146.739V92.2844H147.863V92.4606ZM145.614 92.4606H144.49V92.2844H145.614V92.4606ZM143.365 92.4606H142.241V92.2844H143.365V92.4606ZM141.116 92.4606H139.992V92.2844H141.116V92.4606ZM138.867 92.4606H137.743V92.2844H138.867V92.4606ZM136.618 92.4606H135.494V92.2844H136.618V92.4606ZM134.369 92.4606H133.244V92.2844H134.369V92.4606ZM132.12 92.4606H130.995V92.2844H132.12V92.4606ZM129.871 92.4606H128.746V92.2844H129.871V92.4606ZM127.622 92.4606H126.497V92.2844H127.622V92.4606ZM125.373 92.4606H124.248V92.2844H125.373V92.4606ZM123.124 92.4606H121.999V92.2844H123.124V92.4606ZM120.875 92.4606H119.75V92.2844H120.875V92.4606ZM118.626 92.4606H117.501V92.2844H118.626V92.4606ZM116.377 92.4606H115.252V92.2844H116.377V92.4606ZM114.128 92.4606H113.003V92.2844H114.128V92.4606ZM111.879 92.4606H110.754V92.2844H111.879V92.4606Z" fill="#263238"/>
  <path d="M149.662 92.4609H149.006V92.2735H149.475V91.8049H149.662V92.4609Z" fill="#263238"/>
  <path d="M149.663 90.6688H149.475V89.5443H149.663V90.6688ZM149.663 88.3935H149.475V87.269H149.663V88.3935ZM149.663 86.1183H149.475V84.9937H149.663V86.1183ZM149.663 83.8467H149.475V82.7222H149.663V83.8467ZM149.663 81.5715H149.475V80.447H149.663V81.5715ZM149.663 79.2962H149.475V78.1717H149.663V79.2962ZM149.663 77.0209H149.475V75.8964H149.663V77.0209ZM149.663 74.7456H149.475V73.6211H149.663V74.7456ZM149.663 72.4741H149.475V71.3496H149.663V72.4741ZM149.663 70.1989H149.475V69.0743H149.663V70.1989ZM149.663 67.9236H149.475V66.7991H149.663V67.9236Z" fill="#263238"/>
  <path d="M149.662 65.6489H149.475V65.1803H149.006V64.9929H149.662V65.6489Z" fill="#263238"/>
  <path d="M147.863 65.1801H146.739V64.9927H147.863V65.1801ZM145.614 65.1801H144.49V64.9927H145.614V65.1801ZM143.365 65.1801H142.241V64.9927H143.365V65.1801ZM141.116 65.1801H139.992V64.9927H141.116V65.1801ZM138.867 65.1801H137.743V64.9927H138.867V65.1801ZM136.618 65.1801H135.494V64.9927H136.618V65.1801ZM134.369 65.1801H133.244V64.9927H134.369V65.1801ZM132.12 65.1801H130.995V64.9927H132.12V65.1801ZM129.871 65.1801H128.746V64.9927H129.871V65.1801ZM127.622 65.1801H126.497V64.9927H127.622V65.1801ZM125.373 65.1801H124.248V64.9927H125.373V65.1801ZM123.124 65.1801H121.999V64.9927H123.124V65.1801ZM120.875 65.1801H119.75V64.9927H120.875V65.1801ZM118.626 65.1801H117.501V64.9927H118.626V65.1801ZM116.377 65.1801H115.252V64.9927H116.377V65.1801ZM114.128 65.1801H113.003V64.9927H114.128V65.1801ZM111.879 65.1801H110.754V64.9927H111.879V65.1801Z" fill="#263238"/>
  <path d="M109.038 65.6486H108.85V64.9927H109.506V65.1801H109.038V65.6486Z" fill="#263238"/>
  <path d="M109.038 90.6688H108.85V89.5443H109.038V90.6688ZM109.038 88.3935H108.85V87.269H109.038V88.3935ZM109.038 86.1183H108.85V84.9937H109.038V86.1183ZM109.038 83.8467H108.85V82.7222H109.038V83.8467ZM109.038 81.5715H108.85V80.447H109.038V81.5715ZM109.038 79.2962H108.85V78.1717H109.038V79.2962ZM109.038 77.0209H108.85V75.8964H109.038V77.0209ZM109.038 74.7456H108.85V73.6211H109.038V74.7456ZM109.038 72.4741H108.85V71.3496H109.038V72.4741ZM109.038 70.1989H108.85V69.0743H109.038V70.1989ZM109.038 67.9236H108.85V66.7991H109.038V67.9236Z" fill="#263238"/>
  <g opacity="0.1">
    <path d="M123.064 85.3273H147.458L135.261 75.2329L123.064 85.3273Z" fill="black"/>
  </g>
  <path d="M111.054 85.3388H132.686L121.872 78.7642L111.054 85.3388Z" fill="#525CEB"/>
  <g opacity="0.2">
    <path d="M111.054 85.3383H132.686L121.872 78.7637L111.054 85.3383Z" fill="black"/>
  </g>
  <path d="M147.458 85.3274H111.054V90.324H147.458V85.3274Z" fill="#525CEB"/>
  <g opacity="0.2">
    <path d="M147.459 85.3281H111.054V90.3247H147.459V85.3281Z" fill="black"/>
  </g>
  <path opacity="0.1" d="M117.546 76.8336C119.401 76.8336 120.905 75.3299 120.905 73.475C120.905 71.6201 119.401 70.1165 117.546 70.1165C115.691 70.1165 114.188 71.6201 114.188 73.475C114.188 75.3299 115.691 76.8336 117.546 76.8336Z" fill="black"/>
  <path d="M110.125 63.9055H107.759V66.2708H110.125V63.9055Z" fill="#263238"/>
  <path d="M110.125 91.186H107.759V93.5513H110.125V91.186Z" fill="#263238"/>
  <path d="M109.787 77.8833H108.097V79.5738H109.787V77.8833Z" fill="#263238"/>
  <path d="M130.104 64.2429H128.413V65.9334H130.104V64.2429Z" fill="#263238"/>
  <path d="M130.104 91.5239H128.413V93.2145H130.104V91.5239Z" fill="#263238"/>
  <path d="M150.416 77.8833H148.726V79.5738H150.416V77.8833Z" fill="#263238"/>
  <path d="M150.75 63.9055H148.384V66.2708H150.75V63.9055Z" fill="#263238"/>
  <path d="M150.75 91.186H148.384V93.5513H150.75V91.186Z" fill="#263238"/>
  <path d="M154.187 101.108L155.96 105.384L154.191 106.115L152.41 101.812L149.486 104.08V92.0327L157.92 100.553L154.187 101.108Z" fill="#263238"/>
  <path d="M149.591 90.432C149.462 90.186 149.398 89.9113 149.404 89.6336C149.396 89.3557 149.461 89.0805 149.591 88.8352C149.715 89.0833 149.779 89.3566 149.779 89.6336C149.779 89.9106 149.715 90.1839 149.591 90.432Z" fill="#263238"/>
  <path d="M148.216 91.0015C147.951 90.9194 147.711 90.7711 147.519 90.5705C147.319 90.3771 147.17 90.1377 147.084 89.8733C147.349 89.9545 147.59 90.103 147.781 90.3044C147.981 90.4971 148.131 90.7367 148.216 91.0015Z" fill="#263238"/>
  <path d="M147.646 92.3775C147.4 92.5065 147.125 92.571 146.847 92.5649C146.57 92.5729 146.294 92.5083 146.049 92.3775C146.295 92.2485 146.57 92.184 146.847 92.1901C147.125 92.1858 147.399 92.2502 147.646 92.3775Z" fill="#263238"/>
  <path d="M148.216 93.7529C148.131 94.0178 147.981 94.2574 147.781 94.4501C147.59 94.6515 147.349 94.8 147.084 94.8812C147.17 94.6168 147.319 94.3774 147.519 94.184C147.711 93.9834 147.951 93.8351 148.216 93.7529Z" fill="#263238"/>
  <path d="M151.537 92.3775C151.783 92.2502 152.058 92.1858 152.335 92.1901C152.613 92.184 152.887 92.2485 153.133 92.3775C152.888 92.5083 152.613 92.5729 152.335 92.5649C152.057 92.571 151.783 92.5065 151.537 92.3775Z" fill="#263238"/>
  <path d="M150.967 91.0017C151.055 90.7401 151.202 90.5024 151.397 90.3072C151.592 90.1121 151.83 89.9649 152.092 89.8772C152.004 90.1388 151.857 90.3765 151.662 90.5717C151.466 90.7668 151.229 90.914 150.967 91.0017Z" fill="#263238"/>
  <path d="M219.878 77.5225H197.271V82.2042H219.878V77.5225Z" fill="#525CEB"/>
  <path d="M203.336 82.1667L202.703 88.1492L194.891 137.388H192.653L198.823 88.1492L199.321 82.1667H203.336Z" fill="#525CEB"/>
  <path d="M224.495 137.388H222.258L214.442 88.1492L213.809 82.1667H217.823L218.326 88.1492L224.495 137.388Z" fill="#525CEB"/>
  <path d="M220.721 121.84H195.787V123.245H220.721V121.84Z" fill="#525CEB"/>
  <path opacity="0.1" d="M198.823 87.9355H202.702L203.336 82.1667H199.321L198.823 87.9355Z" fill="black"/>
  <path opacity="0.1" d="M218.326 87.9355H214.442L213.809 82.1667H217.823L218.326 87.9355Z" fill="black"/>
  <path d="M173.352 85.4957C173.6 84.746 186.847 67.2523 187.746 66.9149C187.847 66.8699 193.766 71.0831 193.766 71.0831C194.01 71.4092 205.262 69.029 205.262 69.029L205.375 82.6019L184.886 82.1633C184.886 82.1633 182.12 83.7901 179.586 85.1171C178.51 85.7244 177.397 86.264 176.254 86.7326C175.227 87.0025 173.109 86.2378 173.352 85.4957Z" fill="#F7A9A0"/>
  <path d="M176.246 86.7364C177.389 86.2682 178.5 85.7286 179.575 85.1208C182.105 83.7976 184.875 82.1671 184.875 82.1671L189.437 82.2645L196.559 70.742C194.992 71.0194 193.822 71.1843 193.744 71.0831C193.744 71.0831 187.829 66.8699 187.724 66.9149C186.817 67.2523 173.577 84.746 173.33 85.4957C173.083 86.2453 175.227 87.0025 176.246 86.7364Z" fill="white"/>
  <path d="M173.236 85.5369C173.499 84.7873 186.798 67.286 187.728 66.9374C188.08 66.8062 190.974 68.5942 193.774 71.1019L185.186 82.3658C185.186 82.3658 177.262 86.5602 176.19 86.8339C175.118 87.1075 172.978 86.2866 173.236 85.5369Z" fill="#A6A6A6"/>
  <path d="M174.129 85.7992C176.43 82.9241 185.441 71.1055 187.499 68.0843C187.499 68.0618 187.499 68.0505 187.499 68.0843C185.156 70.8843 176.254 82.7742 174.099 85.7729C174.035 85.8254 174.08 85.8591 174.129 85.7992Z" fill="#263238"/>
  <path d="M177.686 86.1664C177.943 85.8474 178.131 85.4784 178.237 85.0827C178.344 84.6871 178.366 84.2736 178.304 83.8686C178.199 83.1399 177.818 82.4795 177.24 82.0244C177.24 82.0244 177.195 82.0432 177.213 82.0581C177.718 82.5996 178.034 83.2901 178.113 84.0261C178.192 84.7621 178.03 85.5038 177.652 86.1401C177.649 86.1421 177.646 86.1448 177.645 86.1479C177.643 86.151 177.642 86.1545 177.642 86.158C177.642 86.1616 177.643 86.1651 177.644 86.1683C177.646 86.1716 177.648 86.1744 177.651 86.1765C177.653 86.1787 177.657 86.1802 177.66 86.1809C177.664 86.1816 177.667 86.1814 177.671 86.1804C177.674 86.1794 177.677 86.1776 177.68 86.1752C177.682 86.1727 177.684 86.1697 177.686 86.1664Z" fill="#263238"/>
  <path d="M184.193 83.0401C185.1 81.8781 185.722 80.2063 185.317 78.7445C185.317 78.6882 185.22 78.7107 185.212 78.7445C184.971 80.1799 184.575 81.585 184.031 82.9351C184.018 82.9565 184.013 82.9825 184.018 83.0075C184.023 83.0325 184.038 83.0543 184.06 83.0682C184.081 83.0821 184.107 83.087 184.132 83.0817C184.157 83.0764 184.179 83.0615 184.193 83.0401Z" fill="#263238"/>
  <path d="M183.151 83.6627C184.058 82.5007 184.68 80.8289 184.275 79.367C184.275 79.3108 184.178 79.3333 184.17 79.367C183.929 80.8025 183.533 82.2076 182.989 83.5577C182.983 83.5683 182.978 83.5801 182.976 83.5925C182.973 83.605 182.973 83.6177 182.976 83.6301C182.979 83.6424 182.984 83.6541 182.991 83.6646C182.998 83.675 183.007 83.6839 183.018 83.6908C183.028 83.6977 183.04 83.7024 183.052 83.7047C183.065 83.707 183.078 83.7069 183.09 83.7043C183.102 83.7017 183.114 83.6966 183.124 83.6895C183.135 83.6824 183.144 83.6732 183.151 83.6627Z" fill="#263238"/>
  <path d="M182.108 84.315C183.016 83.153 183.638 81.4812 183.233 80.0194C183.233 79.9631 183.135 79.9856 183.128 80.0194C182.887 81.4548 182.491 82.8599 181.947 84.21C181.933 84.2314 181.928 84.2575 181.934 84.2824C181.939 84.3074 181.954 84.3292 181.975 84.3431C181.997 84.357 182.023 84.3619 182.048 84.3566C182.073 84.3513 182.094 84.3364 182.108 84.315Z" fill="#263238"/>
  <path d="M181.067 84.952C181.974 83.79 182.596 82.1144 182.191 80.6563C182.191 80.6001 182.094 80.6226 182.086 80.6563C181.845 82.0918 181.449 83.4969 180.905 84.847C180.892 84.8684 180.887 84.8944 180.892 84.9194C180.897 84.9443 180.912 84.9662 180.934 84.9801C180.955 84.994 180.981 84.9989 181.006 84.9936C181.031 84.9883 181.053 84.9733 181.067 84.952Z" fill="#263238"/>
  <path d="M189.714 70.9519C190.711 69.6325 188.665 68.0807 187.664 69.4001C186.663 70.7195 188.721 72.2713 189.714 70.9519Z" fill="#263238"/>
  <path d="M186.359 86.6912C187.304 86.4701 187.39 85.3568 187.158 84.6034C186.733 83.3142 185.979 82.1588 184.969 81.2523C184.965 81.2477 184.96 81.2439 184.955 81.2413C184.95 81.2387 184.944 81.2373 184.939 81.2373C184.933 81.2373 184.927 81.2387 184.922 81.2413C184.917 81.2439 184.912 81.2477 184.909 81.2523C184.883 81.2404 184.854 81.2346 184.826 81.2354C184.798 81.2363 184.77 81.2437 184.745 81.2572C184.72 81.2706 184.698 81.2897 184.681 81.3129C184.665 81.3362 184.654 81.3629 184.65 81.391C184.594 82.6655 184.376 84.0149 184.71 85.2781C184.905 86.0203 185.467 86.8974 186.359 86.6912ZM184.961 83.3552C184.961 82.7254 185.017 82.1032 185.006 81.481C185.452 82.1219 185.864 82.7849 186.243 83.4676C186.421 83.8002 186.577 84.1446 186.708 84.4984C186.903 85.0457 187.004 86.9424 185.639 86.0915C184.886 85.6117 184.942 84.1011 184.972 83.3552H184.961Z" fill="#263238"/>
  <path d="M186.749 78.0064C185.816 78.9097 185.306 80.1842 184.699 81.3087C184.687 81.3344 184.682 81.3625 184.684 81.3906C184.685 81.4187 184.694 81.4459 184.708 81.4702C184.722 81.4944 184.742 81.5148 184.766 81.5298C184.79 81.5447 184.817 81.5538 184.845 81.5561C184.845 81.5823 184.845 81.6048 184.894 81.5973C186.226 81.3441 187.469 80.7442 188.496 79.8581C189.085 79.3296 189.583 78.3325 188.871 77.6578C188.159 76.9831 187.297 77.4816 186.749 78.0064ZM187.956 77.8077C189.568 77.7777 188.5 79.3521 188.05 79.7231C187.756 79.9588 187.445 80.173 187.12 80.3641C186.445 80.7538 185.751 81.1091 185.04 81.4287C185.374 80.8964 185.655 80.3379 185.97 79.7944C186.341 79.1646 187.068 77.8227 187.971 77.8077H187.956Z" fill="#263238"/>
  <path d="M205.889 64.8681H215.091C215.091 64.8681 224.713 60.2426 232.465 62.1056C241.348 64.2421 242.484 75.4048 235.838 79.3481C227.423 84.3447 189.977 83.3777 189.977 83.3777L198.073 69.6586C198.073 69.6586 210.525 67.0347 221.819 67.4095L205.885 69.5798L205.889 64.8681Z" fill="#37474F"/>
  <path d="M197.537 70.5428C197.545 70.5195 197.551 70.4957 197.556 70.4715V70.4153C197.556 70.3703 197.582 70.3254 197.593 70.2804C197.604 70.2354 197.653 70.1042 197.687 70.0142C197.721 69.9243 197.758 69.8381 197.799 69.7519C197.845 69.6671 197.896 69.5857 197.953 69.5082C197.953 69.5082 197.953 69.5082 197.975 69.5082H197.998H198.017C199.389 69.2533 208.692 67.9226 210.075 67.7652C211.458 67.6078 212.872 67.4766 214.27 67.3604C217.062 67.1168 219.864 67.0155 222.666 67.0568L223.453 67.0793C223.509 67.0605 223.569 67.053 223.626 67.038C223.761 67.0043 223.892 66.9743 224.031 66.9481C224.282 66.8993 224.537 66.8619 224.78 66.8206C225.309 66.7419 225.841 66.6857 226.369 66.5845C226.399 66.5845 226.414 66.6294 226.369 66.6369C225.841 66.7531 225.32 66.9068 224.788 67.0118L224.33 67.1092C225.357 67.1617 226.381 67.2404 227.408 67.3342C227.438 67.3342 227.438 67.3866 227.408 67.3866C226.013 67.3042 224.608 67.2929 223.21 67.3154C221.811 67.3379 220.436 67.3716 219.049 67.4503C216.249 67.6115 213.449 67.8627 210.66 68.155C209.093 68.3162 199.606 69.7031 198.032 69.7668H198.013C198.001 69.8031 197.986 69.8382 197.968 69.8718C197.927 69.958 197.882 70.0442 197.837 70.1267C197.792 70.2092 197.747 70.2879 197.694 70.3628C197.642 70.4378 197.646 70.4378 197.619 70.4753L197.578 70.5353C197.562 70.5524 197.548 70.5713 197.537 70.5915C197.574 70.6027 197.518 70.5765 197.537 70.5428Z" fill="#263238"/>
  <path d="M192.9 82.5383C193.403 81.7361 193.83 80.8777 194.287 80.0531L195.671 77.5641C196.593 75.9111 199.899 70.356 200.225 69.9662C200.229 69.9592 200.235 69.9541 200.243 69.952C200.251 69.9499 200.259 69.9509 200.266 69.9549C200.273 69.9589 200.278 69.9655 200.28 69.9732C200.282 69.9809 200.281 69.9892 200.277 69.9961C200.124 70.4272 198.058 74.1194 197.582 74.929C196.634 76.5708 195.637 78.1789 194.651 79.8019C194.37 80.2667 194.081 80.724 193.796 81.1813C193.511 81.6386 193.208 82.0959 192.945 82.5682C192.93 82.602 192.885 82.5757 192.9 82.5383Z" fill="#263238"/>
  <path d="M200.318 71.3604C201.143 71.1617 201.99 71.0343 202.826 70.8731L205.337 70.4046C207.012 70.0922 208.69 69.7948 210.372 69.5124C213.719 68.9464 217.085 68.4779 220.47 68.1555C222.378 67.9719 224.293 67.8519 226.205 67.7095C226.246 67.7095 226.242 67.7732 226.205 67.7732C222.797 67.9269 219.394 68.3879 216.02 68.8752C212.647 69.3625 209.344 69.8798 206.016 70.4421C205.079 70.5995 204.142 70.7607 203.201 70.9256C202.26 71.0905 201.293 71.3004 200.333 71.4166C200.296 71.4204 200.281 71.3679 200.318 71.3604Z" fill="#263238"/>
  <path d="M190.801 130.142C191.607 130.06 211.668 121.045 212.216 120.216C212.426 119.905 211.282 116.906 209.798 113.323C209.479 112.547 209.142 111.749 208.797 110.943C206.548 105.695 204.067 100.181 204.067 100.181L190.632 106.179L195.73 116.775L196.855 119.103C196.855 119.103 190.719 125.989 190.216 126.975C189.714 127.96 189.995 130.221 190.801 130.142Z" fill="#F7A9A0"/>
  <path d="M190.801 130.142C191.607 130.06 211.668 121.045 212.216 120.217C212.471 119.842 210.716 115.486 208.797 110.943L195.73 116.772L196.855 119.1C196.855 119.1 190.719 125.985 190.216 126.971C189.714 127.957 189.995 130.221 190.801 130.142Z" fill="white"/>
  <path d="M190.801 130.142C191.607 130.06 211.669 121.045 212.216 120.217C212.426 119.906 211.282 116.907 209.798 113.323L196.847 119.1C196.847 119.1 190.711 125.986 190.209 126.971C189.707 127.957 189.995 130.221 190.801 130.142Z" fill="#A6A6A6"/>
  <path d="M190.73 129.209C194.055 127.616 207.598 121.498 211.027 120.175C211.054 120.175 211.061 120.175 211.027 120.198C207.766 121.851 194.16 127.856 190.745 129.265C190.681 129.295 190.659 129.243 190.73 129.209Z" fill="#263238"/>
  <path d="M191.176 125.645C191.545 125.467 191.948 125.367 192.357 125.353C192.767 125.339 193.175 125.41 193.556 125.562C194.244 125.83 194.802 126.352 195.115 127.02C195.115 127.039 195.085 127.058 195.074 127.039C194.661 126.424 194.059 125.96 193.36 125.716C192.66 125.472 191.901 125.462 191.195 125.686C191.192 125.687 191.189 125.688 191.186 125.688C191.183 125.688 191.18 125.687 191.177 125.686C191.174 125.685 191.172 125.684 191.17 125.682C191.168 125.68 191.166 125.677 191.165 125.674C191.163 125.672 191.163 125.669 191.163 125.666C191.163 125.663 191.163 125.66 191.164 125.657C191.165 125.654 191.167 125.652 191.169 125.65C191.171 125.648 191.173 125.646 191.176 125.645Z" fill="#263238"/>
  <path d="M195.693 120.022C197.031 119.4 198.808 119.171 200.139 119.898C200.187 119.924 200.139 119.999 200.097 119.996C198.644 119.909 197.185 119.977 195.746 120.198C195.724 120.2 195.702 120.195 195.684 120.182C195.666 120.17 195.653 120.152 195.647 120.132C195.641 120.111 195.642 120.088 195.65 120.068C195.659 120.048 195.674 120.032 195.693 120.022Z" fill="#263238"/>
  <path d="M194.838 120.892C196.176 120.266 197.949 120.041 199.28 120.764C199.333 120.794 199.28 120.865 199.243 120.865C197.788 120.775 196.327 120.843 194.887 121.068C194.866 121.069 194.845 121.063 194.828 121.05C194.81 121.038 194.798 121.02 194.792 120.999C194.787 120.979 194.788 120.957 194.796 120.937C194.805 120.918 194.819 120.902 194.838 120.892Z" fill="#263238"/>
  <path d="M193.969 121.761C195.307 121.139 197.08 120.914 198.41 121.637C198.463 121.667 198.41 121.739 198.373 121.735C196.919 121.648 195.461 121.716 194.021 121.937C194 121.939 193.978 121.934 193.96 121.922C193.942 121.909 193.929 121.891 193.923 121.871C193.916 121.85 193.918 121.828 193.926 121.808C193.934 121.788 193.949 121.771 193.969 121.761Z" fill="#263238"/>
  <path d="M193.125 122.646C194.46 122.024 196.236 121.795 197.567 122.522C197.619 122.549 197.567 122.624 197.529 122.62C196.074 122.534 194.614 122.601 193.174 122.822C193.153 122.823 193.132 122.817 193.114 122.805C193.097 122.792 193.085 122.774 193.079 122.754C193.073 122.733 193.075 122.711 193.083 122.692C193.092 122.672 193.106 122.656 193.125 122.646Z" fill="#263238"/>
  <path d="M208.734 117.368C210.233 116.693 211.298 119.044 209.783 119.718C208.269 120.393 207.219 118.043 208.734 117.368Z" fill="#263238"/>
  <path d="M193.62 119.006C194.767 119.617 196.139 119.707 197.394 119.94C197.526 119.966 197.604 119.835 197.589 119.722C197.595 119.721 197.6 119.718 197.605 119.714C197.609 119.71 197.613 119.705 197.615 119.7C197.617 119.695 197.618 119.689 197.617 119.683C197.617 119.677 197.615 119.671 197.612 119.666C196.958 118.475 196.003 117.477 194.842 116.772C194.16 116.375 193.054 116.21 192.626 117.08C192.199 117.949 192.949 118.65 193.62 119.006ZM193.058 117.919C192.533 116.394 194.358 116.926 194.849 117.237C195.165 117.446 195.466 117.676 195.749 117.927C196.329 118.449 196.882 119.001 197.406 119.58C196.795 119.426 196.176 119.329 195.561 119.205C194.831 119.044 193.346 118.759 193.058 117.919Z" fill="#263238"/>
  <path d="M202.005 116.648C201.507 115.816 200.419 116.078 199.756 116.532C198.66 117.334 197.794 118.409 197.245 119.651C197.242 119.656 197.241 119.662 197.242 119.668C197.242 119.675 197.243 119.681 197.246 119.686C197.249 119.691 197.253 119.696 197.258 119.7C197.263 119.703 197.269 119.706 197.275 119.707C197.271 119.735 197.274 119.763 197.284 119.79C197.294 119.816 197.309 119.84 197.33 119.859C197.35 119.878 197.375 119.893 197.401 119.901C197.428 119.909 197.457 119.91 197.484 119.906C198.718 119.568 200.075 119.358 201.165 118.65C201.818 118.249 202.481 117.447 202.005 116.648ZM199.261 119.01C198.661 119.193 198.054 119.343 197.458 119.546C197.927 118.925 198.428 118.328 198.958 117.758C199.219 117.488 199.499 117.237 199.797 117.008C200.258 116.652 202.046 115.966 201.641 117.529C201.435 118.391 199.966 118.804 199.261 119.021V119.01Z" fill="#263238"/>
  <path d="M208.49 109.71L193.38 116.543C193.38 116.543 175.388 82.0206 174.923 71.4539C174.522 62.4578 180.782 58.9868 201.023 64.8042L205.982 64.868V68.294C203.805 68.5789 197.998 69.4935 197.998 69.4935C193.774 71.0866 192.413 71.7425 192.481 71.8812C203.017 93.1533 208.49 109.71 208.49 109.71Z" fill="#37474F"/>
  <path d="M190.006 68.0845C190.617 68.8979 191.18 69.745 191.719 70.6072C195 69.2028 198.469 68.2884 202.016 67.8933C203.013 67.7696 204.01 67.6834 205.015 67.6272C205.056 67.6272 205.056 67.6872 205.015 67.6909C201.45 67.938 197.927 68.6074 194.519 69.6851C193.579 69.9737 192.645 70.311 191.727 70.6409C192.375 71.6792 192.986 72.7437 193.575 73.812C194.671 75.8135 195.657 77.8732 196.529 79.9819C197.016 81.1476 197.488 82.3246 197.904 83.5166C197.904 83.5503 197.859 83.5728 197.848 83.5391C196.011 79.4234 194.001 75.3951 191.817 71.4543C191.198 70.3298 190.554 69.2428 189.943 68.122C189.935 68.092 189.984 68.0545 190.006 68.0845Z" fill="#263238"/>
  <path d="M193.05 112.9C193.931 112.555 194.785 112.128 195.648 111.738L198.242 110.573C199.97 109.8 205.944 107.326 206.439 107.199C206.469 107.199 206.488 107.236 206.462 107.255C206.087 107.506 202.226 109.219 201.353 109.594C199.61 110.344 197.848 111.034 196.105 111.742C195.603 111.944 195.097 112.136 194.606 112.334C194.115 112.533 193.586 112.709 193.106 112.934C193.039 112.953 193.02 112.9 193.05 112.9Z" fill="#263238"/>
  <path d="M190.082 69.6436C191.274 71.8927 192.289 74.2804 193.324 76.6194C194.359 78.9584 195.359 81.2974 196.323 83.6514C198.262 88.3443 200.067 93.0923 201.739 97.8952C202.691 100.609 203.576 103.342 204.442 106.082C204.442 106.119 204.393 106.134 204.382 106.082C202.781 101.239 201.046 96.4371 199.235 91.6654C197.425 86.8937 195.509 82.1895 193.478 77.5227C192.908 76.2108 192.328 74.9039 191.738 73.6019C191.15 72.3012 190.539 71.0043 189.988 69.6849C189.977 69.6361 190.052 69.5912 190.082 69.6436Z" fill="#263238"/>
  <path d="M199.651 40.9987C192.904 46.2164 186.742 52.1876 186.018 55.6999C185.561 57.9077 187.255 61.4536 188.492 63.549C189.092 64.5685 198.639 58.4587 197.62 57.7052C195.097 55.8311 194.598 55.0064 194.741 54.5154C194.834 54.1968 201.717 45.6467 203.43 42.0407C205.817 37.0179 202.609 38.7159 199.651 40.9987Z" fill="#F7A9A0"/>
  <path d="M189.928 48.7463L196.352 53.1132C196.352 53.1132 202.384 45.4627 203.849 41.6281C205.315 37.7935 203.707 37.7485 199.917 40.4661C196.128 43.1837 189.928 48.7463 189.928 48.7463Z" fill="#525CEB"/>
  <path d="M189.928 48.7463L196.352 53.1132C196.352 53.1132 202.384 45.4627 203.849 41.6281C205.315 37.7935 203.707 37.7485 199.917 40.4661C196.128 43.1837 189.928 48.7463 189.928 48.7463Z" fill="#525CEB"/>
  <path opacity="0.1" d="M201.236 42.6925L200.539 42.5126L200.712 41.8154C200.72 41.7806 200.714 41.7441 200.696 41.7134C200.678 41.6827 200.648 41.6601 200.614 41.6505C200.579 41.6425 200.542 41.6487 200.511 41.6676C200.48 41.6865 200.458 41.7166 200.449 41.7517L200.243 42.5801V42.61L201.071 42.8237C201.105 42.8367 201.143 42.8367 201.176 42.8237C201.205 42.8038 201.226 42.7748 201.236 42.7412C201.239 42.7251 201.239 42.7086 201.236 42.6925ZM201.78 41.1032C201.778 41.0879 201.773 41.0731 201.765 41.0597C201.758 41.0463 201.748 41.0345 201.735 41.0251C201.723 41.0157 201.709 41.0088 201.694 41.0048C201.679 41.0009 201.664 40.9999 201.649 41.002C201.617 41.0066 201.589 41.0234 201.57 41.0487C201.551 41.0739 201.543 41.1057 201.547 41.1369L201.739 42.4714C201.74 42.4867 201.745 42.5015 201.753 42.5149C201.761 42.5283 201.771 42.54 201.783 42.5495C201.795 42.5589 201.809 42.5658 201.824 42.5697C201.839 42.5737 201.854 42.5747 201.87 42.5726H201.911C201.931 42.5609 201.947 42.5437 201.957 42.523C201.967 42.5023 201.97 42.4791 201.967 42.4564L201.78 41.1032ZM202.998 41.1032C202.997 41.097 202.997 41.0907 202.998 41.0845H202.979L202.151 40.8708C202.116 40.8627 202.08 40.8683 202.049 40.8865C202.018 40.9046 201.996 40.9339 201.986 40.9683C201.981 40.9855 201.98 41.0034 201.983 41.0211C201.985 41.0387 201.991 41.0557 202 41.071C202.009 41.0863 202.021 41.0997 202.036 41.1104C202.05 41.1211 202.066 41.1288 202.083 41.1332L202.781 41.3131L202.608 42.0103C202.603 42.0275 202.602 42.0456 202.604 42.0635C202.606 42.0813 202.612 42.0984 202.621 42.1139C202.63 42.1294 202.642 42.1428 202.657 42.1533C202.672 42.1639 202.688 42.1713 202.706 42.1752C202.738 42.1884 202.774 42.1884 202.807 42.1752C202.838 42.1571 202.861 42.1275 202.871 42.0928L203.073 41.2606V41.2306L202.998 41.1032ZM196.824 44.4318C196.813 44.3981 196.789 44.3702 196.758 44.3541C196.726 44.338 196.69 44.3349 196.656 44.3456L195.846 44.6192L196.108 45.4326C196.124 45.4654 196.149 45.4928 196.18 45.5113C196.204 45.5232 196.231 45.5276 196.257 45.5241C196.284 45.5206 196.309 45.5093 196.329 45.4917C196.349 45.474 196.363 45.4507 196.37 45.4249C196.377 45.399 196.376 45.3717 196.367 45.3464L196.146 44.6642L196.824 44.4355C196.824 44.4343 196.824 44.433 196.824 44.4318ZM197.949 44.9565C197.938 44.9457 197.925 44.937 197.911 44.9311C197.897 44.9252 197.882 44.9222 197.866 44.9222C197.851 44.9222 197.836 44.9252 197.822 44.9311C197.808 44.937 197.795 44.9457 197.784 44.9565L196.757 45.8337C196.746 45.8445 196.737 45.8573 196.732 45.8715C196.726 45.8856 196.723 45.9008 196.723 45.9161C196.723 45.9315 196.726 45.9466 196.732 45.9608C196.737 45.9749 196.746 45.9878 196.757 45.9986C196.765 46.0104 196.777 46.0195 196.791 46.0248C196.809 46.0377 196.832 46.0446 196.854 46.0446C196.877 46.0446 196.899 46.0377 196.918 46.0248L197.945 45.1477C197.959 45.1354 197.97 45.12 197.977 45.1028C197.984 45.0855 197.987 45.0669 197.985 45.0484C197.984 45.0298 197.978 45.0119 197.969 44.996C197.959 44.98 197.946 44.9665 197.93 44.9565H197.949ZM198.631 46.0323C198.633 46.0249 198.633 46.0172 198.631 46.0098L198.369 45.2002C198.357 45.1663 198.332 45.1383 198.3 45.1222C198.268 45.1061 198.231 45.1032 198.196 45.114C198.179 45.1191 198.164 45.1275 198.15 45.1389C198.136 45.1502 198.125 45.1642 198.117 45.1799C198.109 45.1957 198.104 45.2129 198.103 45.2306C198.102 45.2482 198.104 45.2659 198.11 45.2827L198.331 45.9686L197.653 46.1973C197.636 46.2019 197.619 46.2101 197.605 46.2213C197.591 46.2324 197.58 46.2463 197.571 46.2621C197.563 46.278 197.558 46.2953 197.556 46.3132C197.555 46.331 197.557 46.349 197.563 46.3659C197.575 46.3999 197.599 46.4278 197.632 46.4439C197.664 46.46 197.701 46.4629 197.735 46.4521L198.545 46.1785H198.567C198.565 46.1712 198.565 46.1634 198.567 46.156C198.567 46.156 198.612 46.0436 198.612 46.0323H198.631ZM192.952 49.4059L193.458 48.8961C193.484 48.8701 193.498 48.8351 193.498 48.7986C193.498 48.7622 193.484 48.7271 193.458 48.7012C193.432 48.6775 193.398 48.6643 193.363 48.6643C193.327 48.6643 193.293 48.6775 193.267 48.7012L192.667 49.3122V49.3309V49.3497V49.4021L193.267 50.0094C193.28 50.022 193.295 50.0318 193.312 50.0382C193.329 50.0447 193.347 50.0476 193.365 50.0469C193.391 50.0462 193.416 50.0379 193.438 50.0231C193.459 50.0082 193.476 49.9874 193.486 49.9631C193.496 49.9389 193.499 49.9123 193.494 49.8865C193.489 49.8608 193.477 49.837 193.458 49.8182L192.952 49.4059ZM194.68 48.6562C194.651 48.6449 194.619 48.6452 194.591 48.6571C194.562 48.669 194.539 48.6915 194.527 48.7199L194.002 49.9644C193.996 49.9786 193.993 49.994 193.993 50.0095C193.992 50.025 193.995 50.0403 194.001 50.0547C194.007 50.069 194.016 50.082 194.027 50.0929C194.038 50.1038 194.051 50.1123 194.066 50.1181C194.08 50.1217 194.096 50.1217 194.111 50.1181C194.133 50.1178 194.155 50.1114 194.174 50.0995C194.193 50.0876 194.209 50.0707 194.219 50.0506L194.74 48.8024C194.741 48.7777 194.734 48.7535 194.719 48.7333C194.705 48.7131 194.685 48.6979 194.662 48.6899L194.68 48.6562ZM195.805 49.3759V49.3534V49.3347V49.3159L195.205 48.7049C195.179 48.6812 195.145 48.6681 195.11 48.6681C195.074 48.6681 195.04 48.6812 195.014 48.7049C194.988 48.7309 194.974 48.7659 194.974 48.8024C194.974 48.8389 194.988 48.8739 195.014 48.8998L195.52 49.4096L194.946 49.9269C194.934 49.9394 194.924 49.9543 194.917 49.9707C194.91 49.9871 194.907 50.0047 194.907 50.0225C194.907 50.0402 194.91 50.0578 194.917 50.0742C194.924 50.0906 194.934 50.1055 194.946 50.1181C194.959 50.1307 194.975 50.1405 194.991 50.1469C195.008 50.1534 195.026 50.1563 195.044 50.1556C195.061 50.1558 195.078 50.1526 195.095 50.1462C195.111 50.1398 195.125 50.1302 195.138 50.1181L195.737 49.5108C195.737 49.5108 195.737 49.5108 195.737 49.4921C195.748 49.4971 195.761 49.4975 195.772 49.4933C195.783 49.489 195.792 49.4805 195.797 49.4696C195.802 49.4587 195.803 49.4462 195.799 49.435C195.794 49.4237 195.786 49.4146 195.775 49.4096L195.805 49.3759Z" fill="#030402"/>
  <path d="M197.233 51.5128C195.26 50.3225 193.363 49.0092 191.555 47.5808C191.532 47.5808 191.555 47.5283 191.585 47.547C192.072 47.9219 195.014 49.796 197.267 51.4716C197.293 51.4903 197.263 51.5278 197.233 51.5128Z" fill="#263238"/>
  <path opacity="0.1" d="M204.348 39.8062C204.252 40.4366 204.081 41.0533 203.838 41.6429C202.383 45.4775 196.341 53.1279 196.341 53.1279L193.777 51.3849L204.348 39.8062Z" fill="black"/>
  <path d="M218.948 64.7747C218.899 64.8346 197.29 65.2919 197.069 65.0858C196.765 64.7934 198.767 44.4696 201.897 39.4318C202.676 38.1724 206.361 37.239 208.01 38.9483C214.39 45.5529 219.109 64.546 218.948 64.7747Z" fill="#525CEB"/>
  <path opacity="0.1" d="M201.236 42.6928L200.595 42.5279C200.565 42.6141 200.539 42.7003 200.513 42.7865L201.169 42.9552C201.203 42.9682 201.24 42.9682 201.274 42.9552C201.303 42.9353 201.324 42.9062 201.334 42.8727C201.341 42.8546 201.344 42.8351 201.342 42.8157C201.341 42.7963 201.336 42.7775 201.326 42.7604C201.317 42.7433 201.304 42.7284 201.289 42.7168C201.273 42.7051 201.255 42.6969 201.236 42.6928ZM201.78 41.1035C201.778 41.0882 201.773 41.0734 201.766 41.06C201.758 41.0466 201.748 41.0348 201.736 41.0254C201.723 41.016 201.709 41.0091 201.694 41.0051C201.68 41.0011 201.664 41.0002 201.649 41.0023C201.618 41.0069 201.589 41.0237 201.57 41.0489C201.551 41.0742 201.543 41.1059 201.548 41.1372L201.739 42.4716C201.741 42.4869 201.745 42.5017 201.753 42.5151C201.761 42.5285 201.771 42.5403 201.783 42.5497C201.795 42.5591 201.809 42.566 201.824 42.57C201.839 42.574 201.855 42.5749 201.87 42.5728H201.911C201.931 42.5612 201.947 42.5439 201.957 42.5233C201.967 42.5026 201.971 42.4794 201.967 42.4566L201.78 41.1035ZM202.998 41.1035C202.997 41.0973 202.997 41.091 202.998 41.0847H202.979L202.151 40.8711C202.116 40.863 202.08 40.8686 202.049 40.8867C202.018 40.9049 201.996 40.9342 201.986 40.9685C201.982 40.9858 201.981 41.0037 201.983 41.0213C201.985 41.039 201.991 41.056 202.001 41.0713C202.01 41.0866 202.022 41.1 202.036 41.1107C202.05 41.1213 202.066 41.1291 202.084 41.1335L202.781 41.3134L202.608 42.0106C202.603 42.0278 202.602 42.0459 202.604 42.0637C202.606 42.0815 202.612 42.0987 202.621 42.1142C202.63 42.1296 202.643 42.1431 202.657 42.1536C202.672 42.1642 202.688 42.1716 202.706 42.1755C202.738 42.1886 202.775 42.1886 202.807 42.1755C202.838 42.1574 202.861 42.1278 202.871 42.093L203.073 41.2609V41.2309L202.998 41.1035ZM210.289 49.5523L209.592 49.3724L209.764 48.6752C209.769 48.658 209.77 48.64 209.767 48.6224C209.765 48.6048 209.759 48.5878 209.75 48.5725C209.741 48.5571 209.729 48.5437 209.714 48.5331C209.7 48.5224 209.684 48.5147 209.667 48.5103C209.632 48.5022 209.595 48.5078 209.565 48.526C209.534 48.5441 209.511 48.5734 209.502 48.6077L209.299 49.4361C209.297 49.4435 209.297 49.4512 209.299 49.4586C209.299 49.4586 209.299 49.4586 209.299 49.4811L210.128 49.6948C210.161 49.7078 210.199 49.7078 210.233 49.6948C210.247 49.6863 210.26 49.675 210.27 49.6615C210.281 49.648 210.288 49.6325 210.293 49.6161C210.297 49.5948 210.295 49.5729 210.289 49.5523ZM210.832 47.9593C210.83 47.9445 210.826 47.9301 210.818 47.9172C210.811 47.9042 210.801 47.8929 210.789 47.8838C210.777 47.8747 210.764 47.8681 210.749 47.8643C210.735 47.8606 210.72 47.8597 210.705 47.8618C210.689 47.8632 210.674 47.8677 210.66 47.8751C210.646 47.8826 210.634 47.8927 210.624 47.905C210.615 47.9172 210.607 47.9314 210.603 47.9465C210.599 47.9616 210.598 47.9774 210.6 47.993L210.791 49.3312C210.793 49.3464 210.798 49.361 210.805 49.3743C210.813 49.3875 210.823 49.399 210.836 49.4082C210.848 49.4173 210.862 49.4238 210.877 49.4273C210.892 49.4308 210.907 49.4313 210.922 49.4286C210.936 49.4323 210.95 49.4323 210.964 49.4286C210.984 49.4172 211 49.4001 211.011 49.3794C211.021 49.3588 211.026 49.3355 211.023 49.3124L210.832 47.9593ZM212.051 47.9593H212.032L211.203 47.7419C211.168 47.7349 211.132 47.7414 211.101 47.7602C211.071 47.7789 211.048 47.8085 211.038 47.8431C211.03 47.8778 211.036 47.9143 211.054 47.9451C211.072 47.9758 211.102 47.9983 211.136 48.008L211.833 48.1842L211.586 48.7652C211.581 48.7824 211.58 48.8004 211.583 48.818C211.585 48.8356 211.591 48.8526 211.6 48.8679C211.609 48.8833 211.621 48.8967 211.635 48.9073C211.65 48.918 211.666 48.9257 211.683 48.9301C211.7 48.9373 211.718 48.9411 211.736 48.9411C211.754 48.9411 211.772 48.9373 211.788 48.9301C211.818 48.9112 211.839 48.8817 211.848 48.8476L212.051 48.0192V47.9968V47.9743C212.051 47.9743 212.054 47.9518 212.051 47.9518V47.9593ZM200.288 57.6264L199.591 57.424L199.763 56.7268C199.771 56.692 199.766 56.6555 199.748 56.6248C199.729 56.594 199.7 56.5715 199.666 56.5618C199.63 56.5555 199.594 56.5623 199.563 56.5809C199.532 56.5995 199.508 56.6287 199.497 56.663L199.295 57.4914C199.293 57.4976 199.293 57.504 199.295 57.5102V57.5327H199.317L200.146 57.7463C200.178 57.7594 200.214 57.7594 200.247 57.7463C200.278 57.7279 200.301 57.6984 200.311 57.6638C200.306 57.6476 200.298 57.6324 200.288 57.6189V57.6264ZM200.835 56.037C200.835 56.0218 200.831 56.0068 200.825 55.9929C200.819 55.9789 200.81 55.9664 200.799 55.956C200.788 55.9455 200.774 55.9374 200.76 55.932C200.746 55.9266 200.731 55.9241 200.715 55.9246C200.685 55.9301 200.657 55.9471 200.638 55.9721C200.619 55.9972 200.611 56.0284 200.614 56.0595L200.802 57.394C200.806 57.4252 200.823 57.4533 200.848 57.4723C200.874 57.4912 200.905 57.4995 200.937 57.4952C200.95 57.4988 200.964 57.4988 200.978 57.4952C200.998 57.4835 201.014 57.4663 201.024 57.4456C201.034 57.4249 201.037 57.4017 201.034 57.379L200.835 56.037ZM202.054 56.037C202.053 56.0308 202.053 56.0245 202.054 56.0183H202.031L201.206 55.8046C201.172 55.7975 201.136 55.8035 201.105 55.8215C201.075 55.8395 201.052 55.8683 201.042 55.9021C201.036 55.9193 201.035 55.9374 201.037 55.9553C201.039 55.9731 201.045 55.9902 201.054 56.0057C201.064 56.0212 201.076 56.0346 201.09 56.0451C201.105 56.0557 201.121 56.0631 201.139 56.067L201.836 56.247L201.664 56.9442C201.659 56.9614 201.657 56.9795 201.659 56.9973C201.662 57.0151 201.668 57.0323 201.677 57.0478C201.686 57.0632 201.698 57.0766 201.713 57.0872C201.727 57.0977 201.744 57.1052 201.761 57.1091C201.794 57.1222 201.83 57.1222 201.862 57.1091C201.893 57.0899 201.915 57.0607 201.926 57.0266L202.129 56.1945C202.129 56.1945 202.057 56.0445 202.054 56.037ZM210.42 63.2302L209.712 63.0465L209.884 62.3493C209.888 62.3321 209.889 62.3142 209.887 62.2966C209.884 62.2789 209.878 62.262 209.869 62.2467C209.86 62.2314 209.848 62.218 209.834 62.2073C209.82 62.1966 209.804 62.1888 209.787 62.1844C209.769 62.18 209.751 62.179 209.734 62.1815C209.716 62.184 209.699 62.1899 209.684 62.199C209.669 62.208 209.655 62.22 209.644 62.2342C209.634 62.2484 209.626 62.2646 209.622 62.2819L209.415 63.114C209.414 63.1202 209.414 63.1266 209.415 63.1327V63.1552L210.244 63.3689C210.279 63.3759 210.315 63.3691 210.345 63.3502C210.369 63.3372 210.388 63.3173 210.4 63.2932C210.411 63.269 210.416 63.2418 210.412 63.2152C210.407 63.1886 210.395 63.1639 210.377 63.1445C210.358 63.125 210.334 63.1118 210.308 63.1065L210.42 63.2302ZM210.967 61.6371C210.961 61.6083 210.944 61.5829 210.919 61.5662C210.895 61.5495 210.865 61.5427 210.836 61.5472C210.821 61.549 210.806 61.5539 210.793 61.5615C210.779 61.5691 210.767 61.5794 210.758 61.5916C210.749 61.6038 210.742 61.6177 210.738 61.6326C210.734 61.6475 210.733 61.6631 210.735 61.6784L210.922 63.0165C210.925 63.0319 210.93 63.0466 210.938 63.0599C210.946 63.0731 210.957 63.0847 210.969 63.0937C210.982 63.1028 210.996 63.1093 211.011 63.1128C211.026 63.1163 211.042 63.1167 211.057 63.114C211.071 63.1162 211.085 63.1162 211.098 63.114C211.118 63.1017 211.133 63.0843 211.143 63.0638C211.153 63.0433 211.157 63.0205 211.155 62.9978L210.967 61.6371ZM212.185 61.6371C212.185 61.6309 212.185 61.6246 212.185 61.6184H212.167H212.14L211.316 61.4047C211.299 61.4003 211.281 61.3993 211.263 61.4018C211.245 61.4043 211.229 61.4103 211.213 61.4193C211.198 61.4284 211.184 61.4403 211.174 61.4546C211.163 61.4688 211.155 61.485 211.151 61.5022C211.146 61.5194 211.145 61.5374 211.148 61.555C211.15 61.5726 211.156 61.5895 211.165 61.6048C211.175 61.6202 211.187 61.6335 211.201 61.6442C211.215 61.6549 211.231 61.6627 211.248 61.6671L211.946 61.8471L211.773 62.5443C211.768 62.5615 211.767 62.5796 211.769 62.5974C211.771 62.6152 211.777 62.6324 211.786 62.6478C211.795 62.6633 211.807 62.6767 211.822 62.6873C211.837 62.6978 211.853 62.7053 211.871 62.7092C211.905 62.7165 211.942 62.7098 211.972 62.6904C211.988 62.6824 212.002 62.6708 212.013 62.6565C212.024 62.6422 212.032 62.6256 212.036 62.608L212.238 61.7796C212.238 61.7796 212.189 61.6521 212.185 61.6484V61.6371ZM207.8 39.263C207.788 39.2291 207.763 39.2011 207.731 39.1851C207.699 39.169 207.662 39.166 207.627 39.1768L206.818 39.4504C206.818 39.4504 206.818 39.4504 206.799 39.4504C206.799 39.4504 206.799 39.4504 206.799 39.4692L207.061 40.2826C207.074 40.3168 207.1 40.3449 207.133 40.3613C207.165 40.3744 207.201 40.3744 207.234 40.3613C207.268 40.3493 207.296 40.3247 207.312 40.2925C207.328 40.2603 207.331 40.2232 207.32 40.1889L207.095 39.5067L207.777 39.278C207.785 39.2774 207.792 39.2761 207.8 39.2743V39.263ZM208.748 39.769L207.721 40.6499C207.71 40.6607 207.702 40.6736 207.696 40.6877C207.69 40.7019 207.687 40.7171 207.687 40.7324C207.687 40.7477 207.69 40.7629 207.696 40.777C207.702 40.7912 207.71 40.804 207.721 40.8148C207.731 40.8256 207.742 40.8345 207.755 40.8411C207.774 40.8538 207.797 40.8606 207.82 40.8606C207.844 40.8606 207.867 40.8538 207.886 40.8411L208.913 39.964C208.862 39.8996 208.807 39.8383 208.748 39.7803V39.769ZM209.082 40.1776L209.284 40.7961L208.602 41.0248C208.585 41.0298 208.569 41.0383 208.556 41.0496C208.542 41.061 208.531 41.0749 208.523 41.0907C208.515 41.1065 208.51 41.1237 208.509 41.1413C208.508 41.159 208.51 41.1767 208.516 41.1934C208.521 41.2104 208.53 41.2262 208.541 41.2397C208.553 41.2533 208.567 41.2643 208.583 41.2721C208.617 41.2851 208.654 41.2851 208.688 41.2721L209.498 40.9985H209.517C209.517 40.9985 209.517 40.9985 209.517 40.976V40.9423C209.419 40.6312 209.25 40.4063 209.082 40.1814V40.1776ZM205 51.5952C204.987 51.5618 204.962 51.5345 204.93 51.5185C204.898 51.5025 204.862 51.4991 204.827 51.509L204.018 51.7826C204.018 51.7826 204.018 51.7826 204.018 51.8014L204.28 52.6148C204.293 52.649 204.319 52.6771 204.351 52.6935C204.375 52.7054 204.402 52.7098 204.429 52.7063C204.455 52.7028 204.48 52.6915 204.5 52.6738C204.52 52.6562 204.535 52.6329 204.542 52.607C204.548 52.5812 204.547 52.5539 204.539 52.5286L204.318 51.8463L205 51.6177C205 51.614 205 51.6102 205 51.6065V51.5952ZM206.102 52.1237C206.091 52.1129 206.078 52.1042 206.064 52.0983C206.05 52.0924 206.035 52.0894 206.019 52.0894C206.004 52.0894 205.989 52.0924 205.975 52.0983C205.961 52.1042 205.948 52.1129 205.937 52.1237L204.91 53.0009C204.899 53.0117 204.89 53.0245 204.884 53.0387C204.879 53.0528 204.876 53.068 204.876 53.0833C204.876 53.0986 204.879 53.1138 204.884 53.128C204.89 53.1421 204.899 53.155 204.91 53.1658C204.918 53.1776 204.93 53.1867 204.944 53.192C204.962 53.2049 204.985 53.2118 205.007 53.2118C205.03 53.2118 205.052 53.2049 205.071 53.192L206.098 52.3112C206.112 52.3009 206.123 52.2877 206.13 52.2726C206.138 52.2576 206.142 52.2409 206.143 52.224C206.143 52.207 206.139 52.1902 206.132 52.1748C206.125 52.1594 206.115 52.1458 206.102 52.135V52.1237ZM206.784 53.1958C206.785 53.1896 206.785 53.1832 206.784 53.177L206.522 52.3636C206.51 52.3297 206.485 52.3017 206.453 52.2857C206.421 52.2696 206.384 52.2666 206.349 52.2774C206.332 52.2829 206.316 52.2918 206.303 52.3035C206.289 52.3152 206.278 52.3295 206.27 52.3455C206.262 52.3616 206.257 52.3791 206.256 52.397C206.255 52.4149 206.257 52.4329 206.263 52.4498L206.484 53.132L205.806 53.3607C205.788 53.3657 205.772 53.3743 205.758 53.3859C205.744 53.3975 205.733 53.4118 205.725 53.428C205.717 53.4442 205.712 53.4619 205.711 53.48C205.71 53.4981 205.713 53.5162 205.719 53.5331C205.725 53.5498 205.733 53.5651 205.745 53.578C205.757 53.591 205.771 53.6012 205.787 53.6081C205.819 53.6212 205.856 53.6212 205.888 53.6081L206.698 53.3345H206.72C206.72 53.3345 206.784 53.2183 206.784 53.207V53.1958ZM214.682 57.6601C214.67 57.6262 214.645 57.5982 214.613 57.5821C214.581 57.5661 214.544 57.5631 214.509 57.5739L213.7 57.8475H213.681V57.8775C213.679 57.8836 213.679 57.8901 213.681 57.8962L213.943 58.7096C213.958 58.7432 213.983 58.7709 214.015 58.7884C214.047 58.7998 214.083 58.7998 214.116 58.7884C214.15 58.7764 214.178 58.7518 214.194 58.7196C214.21 58.6874 214.213 58.6502 214.202 58.6159L213.977 57.9337L214.659 57.7051C214.669 57.695 214.676 57.6836 214.682 57.6713V57.6601ZM215.806 58.1849C215.784 58.1635 215.753 58.1517 215.722 58.1517C215.691 58.1517 215.661 58.1635 215.638 58.1849L214.584 59.0582C214.562 59.0807 214.55 59.111 214.55 59.1426C214.55 59.1742 214.562 59.2045 214.584 59.2269C214.594 59.2377 214.605 59.2466 214.618 59.2532C214.638 59.2651 214.661 59.2713 214.684 59.2713C214.707 59.2713 214.73 59.2651 214.749 59.2532L215.776 58.3723C215.79 58.3626 215.802 58.3499 215.81 58.3352C215.819 58.3204 215.824 58.3039 215.825 58.2869C215.826 58.27 215.823 58.253 215.817 58.2373C215.81 58.2215 215.8 58.2075 215.788 58.1961L215.806 58.1849ZM216.481 59.2344L216.219 58.421C216.206 58.3877 216.181 58.3603 216.149 58.3443C216.117 58.3283 216.081 58.325 216.046 58.3348C216.012 58.3468 215.984 58.3714 215.968 58.4036C215.952 58.4358 215.949 58.4729 215.96 58.5072L216.185 59.1894L215.503 59.4181C215.469 59.43 215.441 59.4547 215.425 59.4869C215.409 59.5191 215.406 59.5562 215.417 59.5905C215.43 59.6236 215.453 59.6514 215.484 59.6692C215.518 59.6822 215.555 59.6822 215.589 59.6692L216.399 59.3956H216.417C216.417 59.3956 216.417 59.3956 216.417 59.3769V59.3506C216.417 59.3506 216.459 59.2532 216.459 59.2457L216.481 59.2344ZM204.884 45.2417L205.39 44.7319C205.415 44.7066 205.429 44.6722 205.429 44.6363C205.429 44.6005 205.415 44.5661 205.39 44.5407C205.364 44.5154 205.33 44.5011 205.294 44.5011C205.258 44.5011 205.224 44.5154 205.198 44.5407L204.599 45.148V45.1705V45.2229V45.2417L205.198 45.8527C205.211 45.8653 205.227 45.8751 205.243 45.8815C205.26 45.888 205.278 45.8909 205.296 45.8902C205.313 45.8904 205.33 45.8872 205.347 45.8808C205.363 45.8744 205.377 45.8648 205.39 45.8527C205.402 45.8401 205.412 45.8252 205.419 45.8088C205.426 45.7924 205.429 45.7749 205.429 45.7571C205.429 45.7393 205.426 45.7217 205.419 45.7053C205.412 45.6889 205.402 45.674 205.39 45.6615L204.884 45.2417ZM206.612 44.5145C206.597 44.5084 206.582 44.5052 206.567 44.5051C206.551 44.505 206.536 44.508 206.521 44.514C206.507 44.5199 206.494 44.5287 206.483 44.5397C206.472 44.5507 206.464 44.5638 206.458 44.5782L205.933 45.8227C205.927 45.8369 205.924 45.8523 205.924 45.8678C205.924 45.8833 205.927 45.8986 205.933 45.913C205.939 45.9273 205.947 45.9403 205.958 45.9512C205.969 45.9621 205.982 45.9706 205.997 45.9764H206.042C206.065 45.9767 206.088 45.9701 206.107 45.9574C206.126 45.9447 206.142 45.9265 206.151 45.9052L206.672 44.6607C206.679 44.6324 206.674 44.6025 206.659 44.5773C206.645 44.5521 206.621 44.5337 206.593 44.5257L206.612 44.5145ZM207.736 45.2117C207.735 45.2042 207.735 45.1967 207.736 45.1892L207.136 44.582C207.124 44.5694 207.109 44.5595 207.093 44.5527C207.076 44.5459 207.059 44.5424 207.041 44.5424C207.023 44.5424 207.005 44.5459 206.989 44.5527C206.973 44.5595 206.958 44.5694 206.945 44.582C206.933 44.5945 206.923 44.6094 206.916 44.6258C206.909 44.6422 206.906 44.6598 206.906 44.6776C206.906 44.6953 206.909 44.7129 206.916 44.7293C206.923 44.7457 206.933 44.7606 206.945 44.7731L207.451 45.2829L206.945 45.7965C206.933 45.809 206.923 45.8239 206.916 45.8403C206.909 45.8567 206.906 45.8743 206.906 45.892C206.906 45.9098 206.909 45.9274 206.916 45.9438C206.923 45.9602 206.933 45.9751 206.945 45.9876C206.972 46.0123 207.007 46.0258 207.043 46.0251C207.06 46.0258 207.077 46.0228 207.094 46.0164C207.11 46.0099 207.124 46.0001 207.136 45.9876L207.736 45.3766V45.3579V45.3054L207.706 45.2229L207.736 45.2117ZM210.825 53.9305L211.331 53.4207C211.343 53.4081 211.353 53.3932 211.36 53.3768C211.367 53.3604 211.37 53.3428 211.37 53.3251C211.37 53.3073 211.367 53.2898 211.36 53.2734C211.353 53.257 211.343 53.2421 211.331 53.2295C211.318 53.217 211.303 53.207 211.287 53.2002C211.271 53.1934 211.253 53.1899 211.235 53.1899C211.218 53.1899 211.2 53.1934 211.184 53.2002C211.167 53.207 211.152 53.217 211.14 53.2295L210.54 53.8367C210.54 53.8367 210.54 53.8367 210.54 53.8592V53.8817L211.14 54.4927C211.152 54.5053 211.168 54.5151 211.185 54.5216C211.201 54.528 211.219 54.531 211.237 54.5302C211.254 54.5304 211.272 54.5273 211.288 54.5208C211.304 54.5144 211.318 54.5048 211.331 54.4927C211.356 54.4668 211.371 54.4317 211.371 54.3953C211.371 54.3588 211.356 54.3238 211.331 54.2978L210.825 53.9305ZM212.553 53.2033C212.539 53.1972 212.523 53.194 212.508 53.1939C212.492 53.1938 212.477 53.1968 212.463 53.2027C212.448 53.2087 212.435 53.2174 212.424 53.2285C212.413 53.2395 212.405 53.2526 212.399 53.267L211.874 54.5115C211.868 54.5257 211.865 54.541 211.865 54.5565C211.865 54.572 211.868 54.5874 211.874 54.6017C211.88 54.616 211.889 54.629 211.9 54.6399C211.911 54.6508 211.924 54.6594 211.938 54.6651H211.983C212.006 54.6654 212.029 54.6588 212.048 54.6461C212.068 54.6335 212.083 54.6153 212.092 54.5939L212.613 53.3495C212.616 53.3347 212.616 53.3194 212.614 53.3045C212.611 53.2896 212.605 53.2754 212.597 53.2628C212.588 53.2502 212.577 53.2394 212.565 53.2311C212.552 53.2228 212.538 53.2172 212.523 53.2145L212.553 53.2033ZM213.677 53.9005C213.677 53.893 213.677 53.8855 213.677 53.878L213.078 53.2707C213.052 53.2454 213.018 53.2311 212.982 53.2311C212.946 53.2311 212.912 53.2454 212.886 53.2707C212.861 53.2961 212.847 53.3305 212.847 53.3663C212.847 53.4022 212.861 53.4366 212.886 53.4619L213.392 53.9717L212.886 54.4815C212.861 54.5074 212.846 54.5424 212.846 54.5789C212.846 54.6154 212.861 54.6504 212.886 54.6764C212.913 54.7011 212.948 54.7145 212.984 54.7139C213.001 54.7146 213.019 54.7116 213.035 54.7051C213.051 54.6987 213.065 54.6889 213.078 54.6764L213.677 54.0654V54.0129L213.636 53.9117L213.677 53.9005ZM201.184 62.3943L201.69 61.8845C201.716 61.8586 201.73 61.8236 201.73 61.7871C201.73 61.7506 201.716 61.7156 201.69 61.6896C201.664 61.6659 201.63 61.6528 201.594 61.6528C201.559 61.6528 201.525 61.6659 201.499 61.6896L200.854 62.2969V62.3568L201.458 62.9641C201.47 62.9767 201.486 62.9865 201.502 62.9929C201.519 62.9994 201.537 63.0023 201.555 63.0016C201.581 63.0009 201.607 62.9926 201.628 62.9778C201.65 62.9629 201.667 62.9421 201.677 62.9178C201.687 62.8936 201.689 62.867 201.684 62.8412C201.679 62.8155 201.667 62.7918 201.649 62.7729L201.184 62.3943ZM202.912 61.6671C202.898 61.6604 202.883 61.6566 202.867 61.656C202.852 61.6553 202.836 61.6579 202.822 61.6636C202.808 61.6692 202.794 61.6777 202.784 61.6887C202.773 61.6996 202.764 61.7127 202.758 61.7271L202.233 62.9716C202.227 62.9858 202.224 63.0011 202.224 63.0166C202.224 63.0322 202.227 63.0475 202.233 63.0618C202.239 63.0762 202.248 63.0891 202.259 63.1C202.27 63.1109 202.283 63.1195 202.297 63.1253C202.311 63.1287 202.325 63.1287 202.338 63.1253C202.362 63.1257 202.384 63.1196 202.404 63.1076C202.424 63.0957 202.44 63.0784 202.451 63.0578L202.972 61.8096C202.975 61.7942 202.974 61.7785 202.97 61.7634C202.967 61.7482 202.96 61.7341 202.95 61.7217C202.941 61.7094 202.929 61.6992 202.915 61.6917C202.901 61.6842 202.886 61.6797 202.871 61.6784L202.912 61.6671ZM204.036 62.3831V62.3606L203.437 61.7496C203.411 61.7259 203.376 61.7128 203.341 61.7128C203.306 61.7128 203.272 61.7259 203.246 61.7496C203.22 61.7755 203.206 61.8106 203.206 61.8471C203.206 61.8835 203.22 61.9185 203.246 61.9445L203.752 62.4543L203.246 62.9641C203.233 62.9766 203.223 62.9915 203.216 63.0079C203.209 63.0243 203.206 63.0419 203.206 63.0597C203.206 63.0774 203.209 63.095 203.216 63.1114C203.223 63.1278 203.233 63.1427 203.246 63.1552C203.258 63.1674 203.273 63.1769 203.289 63.1834C203.305 63.1898 203.322 63.193 203.339 63.1927C203.357 63.1935 203.375 63.1905 203.392 63.1841C203.409 63.1776 203.424 63.1678 203.437 63.1552L204.036 62.548V62.5293V62.503C204.036 62.503 203.984 62.3981 203.984 62.3943L204.036 62.3831ZM216.699 63.9649C216.672 63.9412 216.638 63.9281 216.603 63.9281C216.568 63.9281 216.534 63.9412 216.507 63.9649L215.908 64.5759C215.908 64.5759 215.908 64.5759 215.908 64.5946V64.6209L215.998 64.7108H216.372L216.196 64.5346L216.646 64.171C216.659 64.1585 216.67 64.1433 216.677 64.1266C216.684 64.1098 216.688 64.0918 216.688 64.0736C216.688 64.0554 216.684 64.0374 216.677 64.0206C216.67 64.0039 216.659 63.9887 216.646 63.9761L216.699 63.9649ZM217.924 63.9386C217.895 63.9272 217.862 63.9274 217.833 63.9392C217.804 63.9511 217.78 63.9737 217.767 64.0024L217.422 64.8195H217.677L217.98 64.0998C217.986 64.0827 217.987 64.0645 217.984 64.0468C217.981 64.0291 217.974 64.0124 217.963 63.9979C217.953 63.9833 217.939 63.9715 217.923 63.9631C217.907 63.9548 217.89 63.9503 217.872 63.9499L217.924 63.9386ZM219.049 64.6359C219.047 64.6297 219.047 64.6232 219.049 64.6171V64.5984V64.5796L218.333 63.9761C218.306 63.9529 218.271 63.9401 218.235 63.9401C218.2 63.9401 218.165 63.9529 218.138 63.9761C218.125 63.9887 218.115 64.0036 218.109 64.02C218.102 64.0364 218.098 64.054 218.098 64.0717C218.098 64.0895 218.102 64.1071 218.109 64.1235C218.115 64.1399 218.125 64.1548 218.138 64.1673L218.644 64.6808L218.532 64.7933C218.786 64.7933 218.929 64.7933 218.933 64.7933V64.7745C218.931 64.7684 218.931 64.762 218.933 64.7558V64.6958L219.049 64.6359ZM201.319 50.302C201.315 50.2845 201.308 50.2678 201.298 50.253C201.288 50.2382 201.275 50.2255 201.26 50.2158C201.245 50.206 201.228 50.1993 201.211 50.1961C201.193 50.1929 201.175 50.1932 201.158 50.1971L200.457 50.3507L200.296 49.6498C200.292 49.6323 200.285 49.6158 200.275 49.6011C200.265 49.5865 200.252 49.574 200.237 49.5646C200.222 49.5551 200.205 49.5488 200.187 49.5461C200.17 49.5433 200.152 49.5442 200.134 49.5486C200.1 49.5575 200.07 49.579 200.051 49.6088C200.031 49.6386 200.024 49.6746 200.029 49.7098L200.221 50.5419C200.219 50.548 200.219 50.5546 200.221 50.5607V50.5794H200.273L201.109 50.3995C201.144 50.3898 201.173 50.3669 201.191 50.3357C201.214 50.3427 201.237 50.3432 201.26 50.3373C201.283 50.3313 201.303 50.3191 201.319 50.302ZM201.694 49.6423L200.922 48.5178C200.904 48.4925 200.877 48.4751 200.847 48.4695C200.817 48.4639 200.786 48.4705 200.76 48.4878C200.735 48.5059 200.717 48.5333 200.712 48.5642C200.706 48.595 200.713 48.6268 200.73 48.6527L201.499 49.7772C201.508 49.79 201.519 49.8008 201.532 49.8091C201.546 49.8173 201.56 49.8229 201.576 49.8253C201.591 49.8278 201.607 49.8271 201.622 49.8233C201.637 49.8196 201.651 49.8128 201.664 49.8035C201.676 49.7955 201.686 49.7853 201.694 49.7735C201.708 49.754 201.716 49.731 201.717 49.7071C201.718 49.6832 201.713 49.6595 201.701 49.6385L201.694 49.6423ZM202.222 48.8664L202.031 48.0342C202.033 48.0282 202.033 48.0215 202.031 48.0155H201.952L201.116 48.1954C201.083 48.2051 201.054 48.2269 201.035 48.2566C201.016 48.2864 201.009 48.322 201.015 48.3566C201.019 48.3741 201.026 48.3908 201.036 48.4056C201.046 48.4204 201.059 48.4331 201.074 48.4428C201.089 48.4526 201.106 48.4593 201.123 48.4625C201.141 48.4657 201.159 48.4654 201.176 48.4616L201.877 48.3079L202.039 49.0088C202.042 49.0264 202.049 49.043 202.059 49.0578C202.069 49.0726 202.082 49.0853 202.097 49.0951C202.112 49.1048 202.129 49.1115 202.147 49.1147C202.164 49.1179 202.182 49.1176 202.2 49.1138C202.217 49.1096 202.234 49.1017 202.248 49.0907C202.262 49.0797 202.274 49.0659 202.282 49.0501C202.295 49.0345 202.303 49.016 202.307 48.9962C202.31 48.9764 202.308 48.9561 202.302 48.9373C202.295 48.9184 202.283 48.9016 202.268 48.8885C202.253 48.8755 202.234 48.8665 202.215 48.8626L202.222 48.8664ZM207.56 59.5493L206.859 59.703L206.713 58.9983C206.709 58.9808 206.702 58.9643 206.691 58.9496C206.681 58.935 206.668 58.9225 206.653 58.913C206.638 58.9034 206.621 58.8969 206.603 58.8938C206.585 58.8908 206.567 58.8913 206.55 58.8952C206.532 58.8991 206.516 58.9065 206.501 58.9168C206.486 58.9271 206.474 58.9402 206.464 58.9554C206.455 58.9705 206.448 58.9874 206.445 59.005C206.442 59.0227 206.443 59.0408 206.447 59.0582L206.638 59.8904C206.638 59.8904 206.638 59.8904 206.638 59.9129H206.66H206.687L207.522 59.733C207.558 59.7231 207.589 59.7004 207.609 59.6692C207.623 59.6465 207.63 59.6201 207.629 59.5933C207.628 59.5666 207.619 59.5407 207.603 59.519C207.588 59.4973 207.566 59.4808 207.541 59.4715C207.516 59.4622 207.489 59.4606 207.463 59.4668L207.56 59.5493ZM208.103 58.9945L207.331 57.87C207.323 57.8576 207.312 57.847 207.3 57.8388C207.287 57.8305 207.274 57.8248 207.259 57.8221C207.244 57.8193 207.229 57.8194 207.215 57.8225C207.2 57.8256 207.186 57.8315 207.174 57.84C207.161 57.8484 207.15 57.8592 207.141 57.8718C207.133 57.8844 207.127 57.8986 207.124 57.9136C207.12 57.9286 207.12 57.944 207.123 57.9591C207.126 57.9741 207.132 57.9884 207.14 58.0012L207.912 59.1257C207.92 59.1391 207.931 59.1506 207.944 59.1596C207.956 59.1685 207.971 59.1746 207.986 59.1774C208.001 59.1802 208.017 59.1798 208.032 59.176C208.047 59.1723 208.061 59.1654 208.073 59.1557C208.087 59.15 208.098 59.1392 208.103 59.1257C208.118 59.1066 208.127 59.0835 208.128 59.0594C208.129 59.0353 208.123 59.0114 208.111 58.9908L208.103 58.9945ZM208.636 58.2186L208.445 57.3865V57.3677H208.37L207.534 57.5476C207.499 57.5565 207.469 57.578 207.45 57.6078C207.431 57.6377 207.423 57.6737 207.429 57.7088C207.437 57.7438 207.458 57.7742 207.488 57.7938C207.518 57.8134 207.555 57.8205 207.59 57.8138L208.295 57.6601L208.452 58.361C208.456 58.3785 208.463 58.3951 208.473 58.4097C208.483 58.4244 208.496 58.4368 208.511 58.4463C208.526 58.4557 208.543 58.462 208.56 58.4648C208.578 58.4675 208.596 58.4667 208.613 58.4623C208.631 58.4595 208.648 58.4526 208.663 58.4422C208.678 58.4318 208.691 58.4182 208.699 58.4023C208.709 58.3865 208.715 58.3689 208.718 58.3506C208.72 58.3323 208.719 58.3137 208.713 58.296C208.708 58.2783 208.699 58.2619 208.687 58.2479C208.675 58.234 208.66 58.2227 208.643 58.2149L208.636 58.2186ZM197.391 64.5309L197.053 64.0436C197.053 64.1823 197.053 64.3135 197.053 64.4184L197.218 64.6546C197.236 64.6799 197.262 64.6972 197.293 64.7029C197.323 64.7085 197.354 64.7019 197.379 64.6846C197.393 64.6774 197.404 64.6654 197.409 64.6508C197.417 64.6341 197.42 64.6157 197.419 64.5974C197.417 64.5791 197.412 64.5614 197.402 64.5459L197.391 64.5309ZM197.923 63.755L197.732 62.9228C197.732 62.9228 197.732 62.9228 197.732 62.9003C197.731 62.8941 197.731 62.8878 197.732 62.8816H197.679H197.66L197.218 62.9753C197.218 63.0728 197.211 63.1665 197.196 63.2564L197.571 63.174L197.728 63.8712C197.736 63.9061 197.757 63.9366 197.787 63.9561C197.817 63.9757 197.854 63.9829 197.889 63.9761C197.924 63.9675 197.955 63.9461 197.975 63.9162C197.988 63.888 197.99 63.8565 197.983 63.8266C197.975 63.7968 197.958 63.7702 197.934 63.7512L197.923 63.755Z" fill="#030402"/>
  <path d="M203.339 67.1168C202.462 67.8402 200.865 65.5312 200.865 65.5312C200.916 66.0173 200.794 66.5055 200.521 66.9107C200.007 67.6041 198.695 67.1018 198.695 67.1018C198.642 67.6173 198.434 68.1046 198.099 68.5C197.541 69.111 196.146 68.7923 196.146 68.7923C195.836 69.2398 195.374 69.5594 194.846 69.692C193.425 69.9956 191.884 68.3988 190.891 67.3942C189.898 66.3896 188.031 62.6075 187.596 61.9215L193.995 55.5081C193.995 55.5081 199.718 58.7504 200.716 60.0961C201.559 61.2356 204.674 66.0148 203.339 67.1168Z" fill="#F7A9A0"/>
  <path d="M200.873 65.4904C200.214 64.0893 199.384 62.775 198.403 61.5771C198.384 61.5509 198.343 61.5771 198.361 61.6108C199.295 62.8103 199.928 64.2909 200.809 65.5279C200.832 65.5616 200.888 65.5316 200.873 65.4904Z" fill="#263238"/>
  <path d="M198.755 66.9973C198.587 66.688 198.379 66.4019 198.137 66.1464C197.897 65.8578 197.653 65.5766 197.387 65.2993C196.889 64.7445 196.379 64.201 195.85 63.6687C195.828 63.6462 195.787 63.6687 195.809 63.7025C196.308 64.2572 196.795 64.827 197.264 65.3967C197.5 65.6816 197.736 65.974 197.968 66.2664C198.169 66.5544 198.4 66.8197 198.658 67.0573C198.666 67.0702 198.679 67.0794 198.693 67.0829C198.708 67.0865 198.724 67.084 198.737 67.076C198.75 67.0681 198.759 67.0553 198.762 67.0405C198.766 67.0258 198.763 67.0102 198.755 66.9973Z" fill="#263238"/>
  <path d="M196.124 68.7702C195.968 68.4879 195.765 68.2343 195.524 68.0205C195.292 67.7731 195.059 67.5219 194.831 67.2708C194.373 66.7685 193.912 66.2662 193.47 65.749C193.47 65.7227 193.406 65.749 193.429 65.7827C193.875 66.3112 194.313 66.8435 194.763 67.3683L195.431 68.1404C195.614 68.3917 195.839 68.6086 196.098 68.7814C196.1 68.7826 196.103 68.7833 196.106 68.7834C196.108 68.7834 196.111 68.7829 196.113 68.7819C196.116 68.7808 196.118 68.7792 196.12 68.7772C196.122 68.7751 196.123 68.7728 196.124 68.7702Z" fill="#263238"/>
  <path d="M209.337 39.4918C219.765 44.7395 229.436 52.8885 229.204 56.0596C228.975 59.4107 223.274 64.1449 217.797 65.8879C216.673 66.244 211.605 58.4623 212.714 57.8626C213.577 57.3978 217.527 55.4599 217.925 54.8002C218.198 54.3391 210.094 46.4075 207.133 42.0369C204.056 37.4601 206.548 38.0861 209.337 39.4918Z" fill="#F7A9A0"/>
  <path d="M215.053 57.1799C215.053 57.1799 211.612 58.1733 209.389 58.9229C208.152 59.339 206.091 60.2461 205.322 60.9696C204.172 62.0528 200.048 67.3118 201.3 68.3389C202.425 69.2685 203.549 67.2743 203.549 67.2743C203.549 67.2743 202.14 69.3397 203.549 69.9169C204.959 70.4942 206.173 67.7616 206.173 67.7616C206.173 67.7616 204.524 69.8532 206.087 70.3218C207.444 70.7341 209.149 67.7279 209.149 67.7279C209.149 67.7279 207.178 69.7333 208.527 70.288C210.027 70.9028 213.138 66.7196 213.138 66.7196C216.2 66.5134 218.011 65.9699 220.016 65.0028C220.353 64.8154 215.053 57.1799 215.053 57.1799Z" fill="#F7A9A0"/>
  <path d="M205.72 68.4368L206.035 67.8071C206.226 67.3933 206.443 66.9914 206.683 66.6039C206.933 66.229 207.183 65.8655 207.433 65.5131C207.714 65.1383 208.036 64.7859 208.31 64.3886C208.311 64.3849 208.314 64.3816 208.317 64.379C208.32 64.3763 208.323 64.3744 208.327 64.3733C208.331 64.3722 208.335 64.372 208.339 64.3727C208.343 64.3734 208.346 64.375 208.35 64.3773C208.353 64.3797 208.356 64.3827 208.357 64.3862C208.359 64.3897 208.36 64.3936 208.36 64.3976C208.361 64.4016 208.36 64.4055 208.358 64.4091C208.357 64.4128 208.354 64.416 208.351 64.4186C208.079 64.7935 207.829 65.184 207.602 65.5881C207.362 65.9629 207.129 66.364 206.893 66.7538C206.657 67.1437 206.413 67.5035 206.173 67.8783C206.053 68.0658 205.945 68.2532 205.832 68.4481C205.738 68.6373 205.629 68.819 205.506 68.9916C205.506 68.9916 205.469 68.9916 205.472 68.9691C205.537 68.7839 205.62 68.6056 205.72 68.4368Z" fill="#263238"/>
  <path d="M203.253 67.7017C203.586 66.9263 203.971 66.1749 204.408 65.4526C204.856 64.7246 205.377 64.044 205.963 63.421C205.963 63.3985 206.019 63.421 206.004 63.451C205.558 64.1744 205.101 64.8941 204.644 65.6101C204.423 65.9624 203.459 67.5855 203.339 67.7429C203.302 67.7841 203.242 67.7466 203.253 67.7017Z" fill="#263238"/>
  <path d="M208.021 69.1865C208.349 68.4604 208.725 67.7567 209.146 67.0799C209.637 66.4303 210.176 65.8177 210.757 65.2469C210.78 65.2282 210.817 65.2469 210.799 65.2807C210.311 65.9291 209.809 66.5664 209.352 67.2411C209.131 67.5672 208.317 68.9241 208.077 69.2165C208.059 69.2465 208.014 69.2165 208.021 69.1865Z" fill="#263238"/>
  <path d="M221.088 46.1788L214.911 51.9738C214.911 51.9738 208.272 44.8556 206.241 41.3059C204.209 37.7561 205.776 37.4488 209.944 39.5441C214.112 41.6395 221.088 46.1788 221.088 46.1788Z" fill="#525CEB"/>
  <path opacity="0.1" d="M212.051 47.9515H212.032L211.204 47.7341C211.18 47.7284 211.156 47.7284 211.132 47.7341C211.23 47.8466 211.324 47.959 211.421 48.0677L211.833 48.1727L211.762 48.4613C211.833 48.5475 211.908 48.63 211.98 48.7124L212.126 48.1089V48.0865V48.064C212.126 48.064 212.055 47.9515 212.051 47.9515ZM207.8 39.274C207.788 39.2401 207.764 39.2121 207.731 39.196C207.699 39.18 207.662 39.177 207.628 39.1878L206.818 39.4614C206.818 39.4614 206.818 39.4614 206.799 39.4614C206.799 39.4614 206.799 39.4614 206.799 39.4802L207.062 40.2936C207.075 40.3278 207.1 40.3559 207.133 40.3723C207.165 40.3854 207.202 40.3854 207.234 40.3723C207.268 40.3603 207.296 40.3357 207.312 40.3035C207.328 40.2713 207.331 40.2342 207.32 40.1999L207.095 39.5176L207.778 39.289C207.786 39.2847 207.793 39.2797 207.8 39.274ZM208.925 39.7988C208.902 39.7774 208.872 39.7656 208.84 39.7656C208.809 39.7656 208.779 39.7774 208.756 39.7988L207.729 40.6796C207.718 40.6904 207.709 40.7033 207.704 40.7174C207.698 40.7316 207.695 40.7468 207.695 40.7621C207.695 40.7774 207.698 40.7926 207.704 40.8068C207.709 40.8209 207.718 40.8338 207.729 40.8446C207.738 40.8553 207.75 40.8642 207.763 40.8708C207.782 40.8836 207.805 40.8903 207.828 40.8903C207.852 40.8903 207.874 40.8836 207.894 40.8708L208.921 39.9937C208.934 39.981 208.943 39.9658 208.949 39.949C208.956 39.9322 208.958 39.9143 208.957 39.8965C208.955 39.8787 208.95 39.8614 208.941 39.8458C208.932 39.8303 208.92 39.8168 208.906 39.8063L208.925 39.7988ZM209.599 40.8483L209.337 40.0387C209.325 40.0047 209.3 39.9768 209.268 39.9607C209.236 39.9446 209.199 39.9417 209.165 39.9525C209.148 39.9575 209.132 39.966 209.118 39.9773C209.105 39.9887 209.094 40.0026 209.085 40.0184C209.077 40.0342 209.073 40.0514 209.071 40.069C209.07 40.0867 209.073 40.1044 209.078 40.1211L209.303 40.8071L208.621 41.0357C208.604 41.0408 208.588 41.0493 208.575 41.0606C208.561 41.072 208.55 41.0859 208.542 41.1017C208.534 41.1174 208.529 41.1347 208.528 41.1523C208.527 41.17 208.529 41.1877 208.535 41.2044C208.54 41.2214 208.549 41.2372 208.56 41.2507C208.572 41.2643 208.586 41.2753 208.602 41.2831C208.636 41.2961 208.673 41.2961 208.707 41.2831L209.517 41.0095H209.536C209.536 41.0095 209.536 41.0095 209.536 40.987V40.957L209.599 40.8483ZM217.269 46.8832C217.257 46.8493 217.232 46.8213 217.2 46.8053C217.168 46.7892 217.13 46.7862 217.096 46.797L216.286 47.0706C216.286 47.0706 216.286 47.0706 216.286 47.0894L216.459 48.0527C216.464 48.0703 216.473 48.0865 216.486 48.1001C216.498 48.1137 216.513 48.1244 216.53 48.1314C216.554 48.1428 216.58 48.147 216.606 48.1436C216.632 48.1401 216.657 48.1292 216.677 48.1121C216.696 48.095 216.711 48.0725 216.718 48.0473C216.725 48.0221 216.725 47.9953 216.718 47.9703L216.493 47.2843L217.175 47.0557C217.191 47.0494 217.206 47.04 217.219 47.0279C217.232 47.0158 217.242 47.0013 217.249 46.9853C217.256 46.9692 217.259 46.9519 217.26 46.9344C217.26 46.9168 217.256 46.8994 217.25 46.8832H217.269ZM218.374 47.408C218.351 47.3867 218.321 47.3748 218.29 47.3748C218.259 47.3748 218.229 47.3867 218.206 47.408L217.179 48.2851C217.168 48.2959 217.159 48.3088 217.153 48.3229C217.147 48.3371 217.144 48.3523 217.144 48.3676C217.144 48.3829 217.147 48.3981 217.153 48.4123C217.159 48.4264 217.168 48.4393 217.179 48.4501C217.187 48.4629 217.199 48.4732 217.212 48.48C217.232 48.4919 217.255 48.4982 217.278 48.4982C217.301 48.4982 217.324 48.4919 217.344 48.48L218.371 47.5992C218.385 47.5873 218.397 47.5721 218.404 47.5547C218.412 47.5374 218.415 47.5185 218.413 47.4996C218.412 47.4808 218.406 47.4626 218.396 47.4467C218.386 47.4307 218.372 47.4174 218.356 47.408H218.374ZM218.787 47.6442C218.774 47.6108 218.749 47.5834 218.717 47.5674C218.685 47.5515 218.649 47.5481 218.614 47.5579C218.58 47.5699 218.552 47.5946 218.536 47.6267C218.52 47.6589 218.517 47.6961 218.528 47.7304L218.742 48.3788L218.959 48.1764L218.787 47.6442ZM217.958 48.8024C217.971 48.8357 217.995 48.8635 218.026 48.8811C218.059 48.8945 218.097 48.8945 218.131 48.8811H218.176L218.652 48.4351L218.044 48.6375C218.012 48.6494 217.986 48.6729 217.97 48.7033C217.954 48.7338 217.95 48.7691 217.958 48.8024ZM213.786 44.6792C213.783 44.6617 213.776 44.6452 213.766 44.6305C213.756 44.6159 213.743 44.6034 213.727 44.5939C213.712 44.5845 213.696 44.5782 213.678 44.5754C213.66 44.5727 213.642 44.5735 213.625 44.578L212.924 44.7279L212.767 44.027C212.757 43.9924 212.735 43.9628 212.704 43.944C212.674 43.9253 212.637 43.9188 212.602 43.9258C212.567 43.9338 212.537 43.9553 212.518 43.9855C212.499 44.0157 212.493 44.0521 212.501 44.0869L212.692 44.9191C212.691 44.9253 212.691 44.9316 212.692 44.9378C212.692 44.9378 212.692 44.9378 212.692 44.9566H212.756L213.591 44.7766C213.627 44.7683 213.658 44.7469 213.678 44.7167C213.699 44.72 213.72 44.7183 213.74 44.7118C213.76 44.7053 213.779 44.6941 213.794 44.6792H213.786ZM214.161 44.0195L213.389 42.8949C213.381 42.8825 213.37 42.8719 213.358 42.8637C213.345 42.8555 213.331 42.8498 213.317 42.847C213.302 42.8442 213.287 42.8443 213.272 42.8474C213.258 42.8505 213.244 42.8565 213.232 42.865C213.205 42.8825 213.187 42.9096 213.181 42.9405C213.175 42.9714 213.181 43.0035 213.198 43.0299L213.97 44.1544C213.979 44.167 213.99 44.1778 214.003 44.186C214.015 44.1942 214.03 44.1997 214.045 44.2022C214.06 44.2047 214.075 44.204 214.09 44.2003C214.105 44.1966 214.119 44.1899 214.131 44.1806C214.145 44.1749 214.155 44.1642 214.161 44.1507C214.177 44.1323 214.187 44.1096 214.19 44.0855C214.192 44.0614 214.188 44.0371 214.176 44.0157L214.161 44.0195ZM214.693 43.2473L214.502 42.4114C214.502 42.4114 214.502 42.4114 214.502 42.3927H214.446H214.427L213.591 42.5688C213.557 42.5785 213.527 42.6007 213.507 42.6312C213.488 42.6616 213.48 42.6982 213.486 42.7338C213.494 42.7685 213.516 42.7987 213.546 42.8176C213.576 42.8366 213.613 42.8428 213.648 42.835L214.352 42.6813L214.51 43.3822C214.518 43.4172 214.539 43.4476 214.569 43.4672C214.599 43.4868 214.636 43.4939 214.671 43.4872C214.706 43.4786 214.737 43.4572 214.757 43.4272C214.774 43.3961 214.778 43.3598 214.769 43.3257C214.76 43.2916 214.738 43.2622 214.708 43.2435L214.693 43.2473Z" fill="#030402"/>
  <path d="M219.319 45.4292C217.721 47.1975 216.014 48.865 214.21 50.422C214.187 50.4445 214.157 50.422 214.18 50.3883C214.652 49.9685 217.126 47.3558 219.293 45.4067C219.308 45.3842 219.341 45.4292 219.319 45.4292Z" fill="#263238"/>
  <path d="M215.304 51.5655C215.173 51.6557 215.048 51.7546 214.929 51.8616C213.91 50.6621 214.109 50.9433 213.078 49.7513L211.578 47.997C211.054 47.3898 210.559 46.7451 210.004 46.1641C210.004 46.1641 209.963 46.1641 209.978 46.1866C210.353 46.79 210.829 47.3523 211.275 47.9183C211.185 47.8358 211.099 47.7496 211.005 47.6709C210.795 47.4947 210.589 47.3223 210.394 47.1311C210.364 47.1012 210.315 47.1311 210.345 47.1724C210.529 47.356 210.72 47.5472 210.874 47.7421C211.027 47.937 211.249 48.117 211.414 48.3044C211.578 48.4918 211.788 48.6417 211.972 48.8067L212.04 48.8666C212.324 49.219 212.605 49.5751 212.894 49.9199C213.513 50.6716 214.187 51.3758 214.911 52.0265C215.071 51.8964 215.22 51.7535 215.357 51.5992C215.361 51.5923 215.363 51.5838 215.361 51.5757C215.359 51.5676 215.354 51.5606 215.347 51.5561C215.34 51.5516 215.332 51.5501 215.324 51.5519C215.316 51.5536 215.309 51.5585 215.304 51.5655Z" fill="#263238"/>
  <path d="M203.64 42.7226C204.558 42.6027 206.155 40.571 206.638 39.008C206.668 38.903 206.316 37.9134 205.949 36.6915C205.724 35.9418 205.495 35.1209 205.341 34.345L200.716 36.4965C201.187 37.4079 201.544 38.3734 201.78 39.3716C201.799 39.4793 201.809 39.5883 201.81 39.6977C201.809 39.7151 201.809 39.7327 201.81 39.7502C201.84 40.3761 202.215 42.9063 203.64 42.7226Z" fill="#F7A9A0"/>
  <path d="M201.84 39.6975C201.842 39.7162 201.842 39.735 201.84 39.7537C202.012 39.7416 202.182 39.7165 202.35 39.6788C205.146 39.0528 205.154 35.4506 205.101 34.4685L200.716 36.4964C201.187 37.4078 201.544 38.3733 201.78 39.3714C201.809 39.4783 201.829 39.5874 201.84 39.6975Z" fill="#263238"/>
  <path d="M205.757 29.1382C206.338 30.8775 205.551 35.9678 204.333 37.1336C202.571 38.8203 199.614 39.0565 198.163 36.9199C196.757 34.8508 197.901 28.2311 199.265 27.1741C201.278 25.5998 204.895 26.5668 205.757 29.1382Z" fill="#F7A9A0"/>
  <path d="M201.196 32.3098C201.196 32.3098 201.222 32.3323 201.218 32.3473C201.139 32.6847 201.109 33.097 201.394 33.2582V33.2769C201.023 33.1682 201.068 32.6359 201.196 32.3098Z" fill="#263238"/>
  <path d="M201.57 32.0286C202.125 32.0961 201.945 33.2019 201.439 33.1531C200.933 33.1044 201.09 31.9762 201.57 32.0286Z" fill="#263238"/>
  <path d="M199.28 31.9651C199.28 31.9651 199.25 31.9651 199.247 31.9913C199.205 32.3362 199.1 32.741 198.771 32.7897C198.771 32.7897 198.771 32.8085 198.771 32.8122C199.16 32.816 199.295 32.3099 199.28 31.9651Z" fill="#263238"/>
  <path d="M199.029 31.56C198.482 31.4326 198.279 32.5346 198.774 32.6508C199.269 32.767 199.486 31.6687 199.029 31.56Z" fill="#263238"/>
  <path d="M202.084 31.5901C201.941 31.5301 201.818 31.4477 201.679 31.3727C201.525 31.3165 201.393 31.2112 201.304 31.0728C201.285 31.024 201.283 30.9703 201.298 30.92C201.313 30.8698 201.344 30.826 201.387 30.7955C201.48 30.7476 201.584 30.7252 201.689 30.7305C201.793 30.7358 201.895 30.7685 201.983 30.8254C202.177 30.9155 202.33 31.0745 202.414 31.2715C202.43 31.3171 202.433 31.3665 202.422 31.4138C202.411 31.461 202.387 31.5041 202.352 31.5378C202.317 31.5715 202.273 31.5943 202.226 31.6036C202.178 31.6129 202.129 31.6082 202.084 31.5901Z" fill="#263238"/>
  <path d="M198.669 30.4544C198.826 30.4544 198.973 30.4244 199.126 30.4057C199.29 30.4137 199.451 30.3661 199.584 30.2707C199.62 30.2328 199.643 30.1839 199.648 30.1316C199.654 30.0793 199.641 30.0267 199.614 29.9821C199.547 29.9022 199.46 29.8417 199.361 29.8068C199.263 29.7718 199.157 29.7638 199.055 29.7835C198.84 29.7931 198.636 29.8811 198.482 30.0308C198.449 30.0674 198.428 30.1124 198.421 30.1606C198.413 30.2088 198.42 30.2581 198.44 30.3027C198.459 30.3473 198.491 30.3853 198.532 30.4122C198.573 30.4391 198.62 30.4537 198.669 30.4544Z" fill="#263238"/>
  <path d="M201.019 35.5818C200.926 35.6492 200.824 35.7467 200.701 35.7392C200.567 35.7197 200.439 35.6711 200.326 35.5968C200.365 35.6713 200.424 35.7339 200.496 35.7781C200.568 35.8222 200.65 35.8463 200.734 35.8479C200.807 35.8395 200.875 35.8102 200.931 35.7636C200.987 35.717 201.028 35.6551 201.049 35.5855C201.057 35.5818 201.034 35.5705 201.019 35.5818Z" fill="#263238"/>
  <path d="M200.817 34.4988C200.709 34.6213 200.577 34.7201 200.43 34.7892C200.282 34.8582 200.121 34.8959 199.958 34.8998C199.816 34.9042 199.673 34.8878 199.535 34.8511L199.456 34.8324L199.381 34.8061C199.363 34.8003 199.348 34.7885 199.338 34.7729C199.328 34.7572 199.323 34.7385 199.325 34.7199C199.325 34.7199 199.325 34.6937 199.325 34.6824V34.6524C199.359 34.3863 199.445 33.989 199.445 33.989C199.344 34.0227 198.815 34.1652 198.845 34.0302C199.059 32.8445 199.395 31.6839 199.846 30.5667C199.846 30.5292 199.914 30.5667 199.906 30.5667C199.715 31.665 199.329 32.722 199.119 33.8203C199.307 33.7672 199.501 33.7395 199.696 33.7378C199.734 33.7378 199.512 34.4875 199.509 34.6225C199.722 34.6769 199.943 34.6883 200.161 34.6561C200.379 34.6239 200.587 34.5488 200.776 34.435C200.817 34.4463 200.843 34.4763 200.817 34.4988Z" fill="#263238"/>
  <path d="M199.711 34.7426C199.826 34.9541 199.994 35.1323 200.198 35.2599C200.312 35.3252 200.443 35.354 200.573 35.3423C200.858 35.3123 200.907 35.0612 200.888 34.8363C200.877 34.7191 200.853 34.6035 200.817 34.4915C200.485 34.6909 200.097 34.7789 199.711 34.7426Z" fill="#263238"/>
  <path d="M200.198 35.2599C200.312 35.3252 200.443 35.354 200.573 35.3423C200.858 35.3123 200.907 35.0612 200.888 34.8363C200.742 34.8196 200.595 34.8522 200.47 34.929C200.345 35.0058 200.249 35.1223 200.198 35.2599Z" fill="#FF9BBC"/>
  <path d="M205.555 33.7488C205.555 33.7488 207.399 30.7088 207.23 28.9509C207.152 28.1562 206.068 27.6202 206.068 27.6202C206.152 27.2962 206.144 26.9553 206.044 26.6359C205.944 26.3166 205.756 26.0317 205.502 25.8135C204.565 24.9288 202.29 25.1238 202.29 25.1238C202.29 25.1238 200.813 22.9909 198.725 23.8343C196.638 24.6777 197.998 27.0467 197.998 27.0467C197.998 27.0467 197.249 28.1337 199.1 28.9846C200.952 29.8355 204.648 28.9846 204.648 28.9846C204.473 30.2657 204.491 31.5658 204.7 32.8417C204.744 33.0574 204.848 33.2565 204.999 33.4167C205.15 33.577 205.342 33.6919 205.555 33.7488Z" fill="#263238"/>
  <path d="M201.926 25.154C202.392 24.9637 202.892 24.8719 203.396 24.8841C203.845 24.8784 204.293 24.9494 204.719 25.0941C205.101 25.2033 205.447 25.4144 205.719 25.7049C205.991 25.9954 206.179 26.3543 206.263 26.7433C206.294 26.9456 206.283 27.1518 206.233 27.3501C206.183 27.5483 206.094 27.7345 205.971 27.8978C206.454 27.3019 206.199 26.3723 205.701 25.87C205.092 25.3375 204.309 25.0479 203.5 25.0566C202.982 25.0481 202.465 25.1023 201.96 25.2178C201.956 25.22 201.951 25.2213 201.946 25.2218C201.942 25.2222 201.937 25.2217 201.932 25.2203C201.923 25.2175 201.916 25.2112 201.911 25.2028C201.907 25.1943 201.906 25.1844 201.909 25.1753C201.911 25.1661 201.918 25.1585 201.926 25.154Z" fill="#263238"/>
  <path d="M201.162 34.3449C200.973 34.2827 200.799 34.1838 200.649 34.0537C200.499 33.9236 200.376 33.7651 200.288 33.5872C200.2 33.4094 200.148 33.2158 200.135 33.0177C200.122 32.8196 200.149 32.6209 200.213 32.4332C200.305 32.169 200.468 31.9357 200.686 31.7595C200.903 31.5834 201.165 31.4715 201.442 31.4364C201.719 31.4013 202.001 31.4445 202.255 31.5611C202.509 31.6776 202.726 31.8629 202.88 32.096C203.035 32.3291 203.121 32.6008 203.129 32.8802C203.137 33.1597 203.067 33.4359 202.926 33.6776C202.786 33.9193 202.58 34.1169 202.334 34.248C202.087 34.3792 201.808 34.4387 201.529 34.4199C201.404 34.4097 201.281 34.3846 201.162 34.3449ZM200.412 32.4969C200.33 32.7415 200.322 33.0048 200.39 33.2538C200.457 33.5027 200.597 33.726 200.792 33.8955C200.986 34.065 201.226 34.173 201.482 34.206C201.738 34.2389 201.998 34.1952 202.229 34.0805C202.46 33.9658 202.652 33.7852 202.78 33.5614C202.908 33.3377 202.968 33.0809 202.95 32.8236C202.933 32.5663 202.839 32.3199 202.682 32.1156C202.524 31.9114 202.31 31.7584 202.065 31.676C201.962 31.6405 201.855 31.6191 201.746 31.6123C201.456 31.5881 201.166 31.6621 200.923 31.8225C200.679 31.983 200.497 32.2205 200.405 32.4969H200.412Z" fill="#455A64"/>
  <path d="M198.036 33.7266C197.428 33.6104 197.065 32.8495 197.222 32.0323C197.288 31.6619 197.467 31.3212 197.736 31.0578C197.844 30.9373 197.982 30.847 198.135 30.7956C198.289 30.7442 198.453 30.7334 198.612 30.7644C198.771 30.7953 198.919 30.8669 199.042 30.9722C199.165 31.0775 199.259 31.2129 199.314 31.3651C199.466 31.709 199.505 32.0921 199.426 32.4596C199.276 33.2318 198.71 33.7828 198.133 33.7416L198.036 33.7266ZM197.874 31.2039C197.636 31.4381 197.478 31.7409 197.421 32.0698C197.282 32.7783 197.575 33.4305 198.073 33.5279C198.572 33.6254 199.089 33.1306 199.228 32.4222C199.298 32.0964 199.264 31.7567 199.13 31.4513C199.084 31.3308 199.009 31.2235 198.911 31.1386C198.814 31.0537 198.697 30.9938 198.572 30.964H198.497C198.382 30.9585 198.267 30.977 198.16 31.0183C198.053 31.0596 197.956 31.1228 197.874 31.2039Z" fill="#455A64"/>
  <path d="M200.229 32.6131L200.386 32.4856C200.199 32.257 199.726 31.9009 199.292 32.2158L199.408 32.3807C199.801 32.0958 200.21 32.5943 200.229 32.6131Z" fill="#455A64"/>
  <path d="M206.751 34.2773L206.946 34.2211C206.919 34.1311 206.672 33.3327 206.245 33.1753C205.817 33.0178 203.145 32.763 203.029 32.7517V32.9541C203.804 33.0291 205.885 33.2503 206.196 33.3665C206.507 33.4827 206.687 34.0599 206.751 34.2773Z" fill="#455A64"/>
  <path d="M204.786 33.2955C204.786 33.2955 205.911 31.6499 206.66 32.051C207.41 32.4521 206.559 34.8398 205.69 35.1697C205.581 35.2196 205.463 35.247 205.344 35.2504C205.224 35.2537 205.105 35.2329 204.994 35.1892C204.882 35.1454 204.781 35.0796 204.696 34.9958C204.611 34.9119 204.543 34.8117 204.498 34.7011L204.786 33.2955Z" fill="#F7A9A0"/>
  <path d="M206.406 32.7295C206.406 32.7295 206.424 32.7295 206.406 32.752C206.126 32.8942 205.879 33.0934 205.681 33.3368C205.483 33.5802 205.338 33.8623 205.255 34.1651C205.289 34.1005 205.338 34.0444 205.397 34.0011C205.456 33.9578 205.524 33.9284 205.596 33.9151C205.668 33.9018 205.743 33.9049 205.813 33.9241C205.884 33.9434 205.949 33.9784 206.005 34.0264C206.005 34.0264 206.005 34.0639 206.005 34.0602C205.897 34.0263 205.781 34.0268 205.674 34.0618C205.566 34.0967 205.472 34.1643 205.405 34.2551C205.293 34.4068 205.197 34.5702 205.12 34.7424C205.09 34.7986 204.993 34.7686 205.015 34.7049C204.97 33.9102 205.589 32.8157 206.406 32.7295Z" fill="#263238"/>
  <path d="M207.088 39.5323C206.728 40.3221 206.306 41.0829 205.828 41.8075C205.381 42.4908 204.723 43.0094 203.954 43.2844C203.204 43.498 202.41 43.4868 201.949 42.5984C201.611 41.8251 201.446 40.9871 201.465 40.1432C201.465 40.1353 201.462 40.1277 201.456 40.122C201.451 40.1164 201.443 40.1133 201.435 40.1133C201.427 40.1133 201.42 40.1164 201.414 40.122C201.408 40.1277 201.405 40.1353 201.405 40.1432C201.465 41.4027 201.638 43.3406 202.83 43.558C204.164 43.7979 205.266 42.9245 205.978 41.8975C206.448 41.1555 206.836 40.365 207.137 39.5397C207.137 39.5397 207.11 39.5173 207.088 39.5323Z" fill="#263238"/>
  <path d="M216.178 69.4788H192.211V70.5508H216.178V69.4788Z" fill="#C7C7C7"/>
  <path d="M192.211 69.4788V70.5508H208.501L207.68 69.4788H192.211Z" fill="#A6A6A6"/>
  <path d="M206.645 70.5507H183.289L181.344 54.6875H204.7L206.645 70.5507Z" fill="#C7C7C7"/>
  <path d="M195.416 62.6191C195.42 62.8049 195.387 62.9897 195.319 63.1625C195.251 63.3354 195.149 63.4929 195.019 63.6257C194.889 63.7585 194.734 63.8639 194.562 63.9356C194.391 64.0074 194.207 64.0441 194.021 64.0435C193.642 64.0426 193.277 63.8929 193.007 63.6266C192.736 63.3604 192.581 62.9986 192.574 62.6191C192.57 62.4337 192.603 62.2493 192.672 62.0769C192.74 61.9044 192.842 61.7474 192.972 61.615C193.102 61.4826 193.257 61.3776 193.428 61.306C193.599 61.2345 193.783 61.1979 193.969 61.1985C194.348 61.1994 194.711 61.3485 194.982 61.614C195.252 61.8795 195.408 62.2403 195.416 62.6191Z" fill="white"/>
</svg>