<svg xmlns="http://www.w3.org/2000/svg" width="142" height="132" viewBox="0 0 142 132" fill="none">
  <path d="M71 131.052C110.212 131.052 142 129.086 142 126.659C142 124.233 110.212 122.266 71 122.266C31.7878 122.266 0 124.233 0 126.659C0 129.086 31.7878 131.052 71 131.052Z" fill="#F5F5F5"/>
  <path d="M79.8107 1.70207V124.382C79.8107 124.619 79.7661 124.855 79.6795 125.074C79.5929 125.293 79.466 125.492 79.3062 125.659C79.1464 125.826 78.9568 125.957 78.7486 126.046C78.5404 126.134 78.3176 126.178 78.0933 126.174H19.8256C19.6219 126.177 19.4197 126.136 19.2312 126.054C19.0427 125.972 18.8717 125.851 18.7285 125.697C18.5853 125.544 18.4728 125.361 18.3976 125.16C18.3225 124.96 18.2863 124.745 18.2913 124.529V1.5546C18.2844 1.36447 18.313 1.17478 18.3754 0.996367C18.4377 0.817955 18.5327 0.654325 18.6548 0.514836C18.7769 0.375348 18.9237 0.262737 19.0869 0.183445C19.2501 0.104153 19.4265 0.0597367 19.6059 0.0527344H33.4404C33.6545 0.056781 33.8625 0.128356 34.038 0.258312C34.2134 0.388269 34.3483 0.570706 34.4255 0.782321L35.059 2.43554C35.1373 2.6457 35.2727 2.8265 35.4481 2.955C35.6234 3.08351 35.8308 3.15394 36.044 3.15736H62.0909C62.3032 3.15642 62.5103 3.08832 62.6858 2.96179C62.8613 2.83526 62.9972 2.65607 63.076 2.44718L63.7095 0.786203C63.7885 0.575607 63.9238 0.394028 64.0987 0.263739C64.2737 0.13345 64.4808 0.0601172 64.6945 0.0527344H78.324C78.7255 0.0688661 79.1053 0.250099 79.3828 0.558002C79.6604 0.865905 79.8139 1.27626 79.8107 1.70207Z" fill="#3F56CC"/>
  <path opacity="0.6" d="M79.8107 1.70207V124.382C79.8107 124.619 79.7661 124.855 79.6795 125.074C79.5929 125.293 79.466 125.492 79.3062 125.659C79.1464 125.826 78.9568 125.957 78.7486 126.046C78.5404 126.134 78.3176 126.178 78.0933 126.174H19.8256C19.6219 126.177 19.4197 126.136 19.2312 126.054C19.0427 125.972 18.8717 125.851 18.7285 125.697C18.5853 125.544 18.4728 125.361 18.3976 125.16C18.3225 124.96 18.2863 124.745 18.2913 124.529V1.5546C18.2844 1.36447 18.313 1.17478 18.3754 0.996367C18.4377 0.817955 18.5327 0.654325 18.6548 0.514836C18.7769 0.375348 18.9237 0.262737 19.0869 0.183445C19.2501 0.104153 19.4265 0.0597367 19.6059 0.0527344H33.4404C33.6545 0.056781 33.8625 0.128356 34.038 0.258312C34.2134 0.388269 34.3483 0.570706 34.4255 0.782321L35.059 2.43554C35.1373 2.6457 35.2727 2.8265 35.4481 2.955C35.6234 3.08351 35.8308 3.15394 36.044 3.15736H62.0909C62.3032 3.15642 62.5103 3.08832 62.6858 2.96179C62.8613 2.83526 62.9972 2.65607 63.076 2.44718L63.7095 0.786203C63.7885 0.575607 63.9238 0.394028 64.0987 0.263739C64.2737 0.13345 64.4808 0.0601172 64.6945 0.0527344H78.324C78.7255 0.0688661 79.1053 0.250099 79.3828 0.558002C79.6604 0.865905 79.8139 1.27626 79.8107 1.70207Z" fill="#FCFCFC"/>
  <path d="M35.3231 93.1726H22.6347C21.9511 93.1726 21.397 93.7599 21.397 94.4843V107.931C21.397 108.656 21.9511 109.243 22.6347 109.243H35.3231C36.0066 109.243 36.5608 108.656 36.5608 107.931V94.4843C36.5608 93.7599 36.0066 93.1726 35.3231 93.1726Z" fill="#FCFCFC"/>
  <path opacity="0.5" d="M33.3449 96.5718H24.604V105.835H33.3449V96.5718Z" fill="#3F56CC"/>
  <path opacity="0.3" d="M24.604 96.5718V105.835H33.3485V96.5718H24.604ZM28.6943 101.205L25.0068 105.113V97.2975L28.6943 101.205ZM25.2888 96.9987H32.6638L28.9763 100.903L25.2888 96.9987ZM28.9763 101.504L32.6638 105.412H25.2888L28.9763 101.504ZM29.2582 101.205L32.9457 97.2975V105.113L29.2582 101.205Z" fill="#FCFCFC"/>
  <path opacity="0.75" d="M36.6916 112.596H21.2605V114.439H36.6916V112.596Z" fill="#3F56CC"/>
  <path d="M21.8943 113.085H21.4548V112.918H22.5131V113.085H22.0737V114.272H21.8943V113.085Z" fill="#FCFCFC"/>
  <path d="M55.1295 93.0093H42.4411C41.7575 93.0093 41.2034 93.5966 41.2034 94.321V107.768C41.2034 108.492 41.7575 109.08 42.4411 109.08H55.1295C55.813 109.08 56.3672 108.492 56.3672 107.768V94.321C56.3672 93.5966 55.813 93.0093 55.1295 93.0093Z" fill="#FCFCFC"/>
  <path opacity="0.5" d="M53.1523 96.4131H44.4114V105.677H53.1523V96.4131Z" fill="#3F56CC"/>
  <path opacity="0.3" d="M44.4114 96.4131V105.677H53.1559V96.4131H44.4114ZM48.5017 101.047L44.8142 104.951V97.1388L48.5017 101.047ZM45.0961 96.84H52.4712L48.7837 100.744L45.0961 96.84ZM48.7837 101.342L52.4712 105.25H45.0961L48.7837 101.342ZM49.0656 101.043L52.7531 97.1349V104.951L49.0656 101.043Z" fill="#FCFCFC"/>
  <path opacity="0.75" d="M56.4995 112.437H41.0684V114.28H56.4995V112.437Z" fill="#3F56CC"/>
  <path d="M41.7053 112.925H41.2659V112.759H42.3241V112.925H41.8847V114.09H41.7053V112.925Z" fill="#FCFCFC"/>
  <path d="M74.9366 92.8501H62.2482C61.5646 92.8501 61.0105 93.4374 61.0105 94.1618V107.609C61.0105 108.333 61.5646 108.92 62.2482 108.92H74.9366C75.6202 108.92 76.1743 108.333 76.1743 107.609V94.1618C76.1743 93.4374 75.6202 92.8501 74.9366 92.8501Z" fill="#FCFCFC"/>
  <path opacity="0.5" d="M72.9594 96.2537H64.2185V105.517H72.9594V96.2537Z" fill="#3F56CC"/>
  <path opacity="0.3" d="M64.2185 96.2537V105.517H72.9594V96.2537H64.2185ZM68.3052 100.883L64.6213 104.791V96.9794L68.3052 100.883ZM64.9033 96.6844H72.2783L68.5908 100.592L64.9033 96.6844ZM68.5908 101.194L72.2783 105.102H64.9033L68.5908 101.194ZM68.8727 100.891L72.5602 96.9871V104.799L68.8727 100.891Z" fill="#FCFCFC"/>
  <path opacity="0.75" d="M76.3056 112.278H60.8745V114.121H76.3056V112.278Z" fill="#3F56CC"/>
  <path d="M61.5083 112.766H61.0688V112.596H62.1271V112.766H61.6877V113.95H61.5083V112.766Z" fill="#FCFCFC"/>
  <path d="M76.13 11.4932H21.9709C21.5786 11.4932 21.2605 11.8302 21.2605 12.246V39.0623C21.2605 39.4781 21.5786 39.8152 21.9709 39.8152H76.13C76.5223 39.8152 76.8404 39.4781 76.8404 39.0623V12.246C76.8404 11.8302 76.5223 11.4932 76.13 11.4932Z" fill="#FCFCFC"/>
  <path opacity="0.75" d="M23.967 26.229C24.6465 26.229 25.1973 25.6452 25.1973 24.925C25.1973 24.2049 24.6465 23.6211 23.967 23.6211C23.2874 23.6211 22.7366 24.2049 22.7366 24.925C22.7366 25.6452 23.2874 26.229 23.967 26.229Z" fill="#3F56CC"/>
  <path d="M23.3586 24.9249L24.3107 25.608V24.238L23.3586 24.9249Z" fill="#FCFCFC"/>
  <path opacity="0.75" d="M74.1344 26.229C74.814 26.229 75.3648 25.6452 75.3648 24.925C75.3648 24.2049 74.814 23.6211 74.1344 23.6211C73.4549 23.6211 72.9041 24.2049 72.9041 24.925C72.9041 25.6452 73.4549 26.229 74.1344 26.229Z" fill="#3F56CC"/>
  <path d="M74.7429 24.9249L73.7908 24.238V25.608L74.7429 24.9249Z" fill="#FCFCFC"/>
  <path opacity="0.75" d="M61.4977 18.3467H30.4854V21.6221H61.4977V18.3467Z" fill="#3F56CC"/>
  <path opacity="0.75" d="M61.4977 22.6001H30.4854V25.8755H61.4977V22.6001Z" fill="#3F56CC"/>
  <path opacity="0.75" d="M55.8841 27.1797H30.4854V30.4551H55.8841V27.1797Z" fill="#3F56CC"/>
  <path d="M31.613 19.2161H30.833V18.9172H32.7152V19.2161H31.9352V21.3272H31.613V19.2161Z" fill="#FCFCFC"/>
  <path opacity="0.75" d="M43.9938 38.2395C43.9938 38.3562 43.9612 38.4702 43.9 38.5673C43.8389 38.6643 43.7519 38.7399 43.6502 38.7845C43.5485 38.8292 43.4366 38.8408 43.3286 38.8181C43.2207 38.7953 43.1215 38.7391 43.0436 38.6566C42.9658 38.5741 42.9128 38.469 42.8913 38.3546C42.8698 38.2402 42.8809 38.1216 42.923 38.0138C42.9651 37.906 43.0365 37.8139 43.128 37.7491C43.2195 37.6843 43.3271 37.6497 43.4372 37.6497C43.5848 37.6497 43.7264 37.7118 43.8308 37.8224C43.9352 37.9331 43.9938 38.0831 43.9938 38.2395Z" fill="#3F56CC"/>
  <path opacity="0.75" d="M46.798 38.2395C46.798 38.3564 46.7653 38.4706 46.704 38.5677C46.6426 38.6648 46.5555 38.7404 46.4536 38.7849C46.3516 38.8294 46.2395 38.8409 46.1315 38.8178C46.0234 38.7947 45.9242 38.7382 45.8465 38.6553C45.7689 38.5724 45.7161 38.4669 45.6951 38.3522C45.674 38.2375 45.6856 38.1188 45.7282 38.0111C45.7709 37.9034 45.8428 37.8115 45.9349 37.7472C46.0269 37.6828 46.1348 37.6489 46.2451 37.6497C46.3921 37.6507 46.5327 37.7133 46.6363 37.8238C46.7399 37.9343 46.798 38.0838 46.798 38.2395Z" fill="#3F56CC"/>
  <path opacity="0.75" d="M49.6073 38.2395C49.6073 38.3562 49.5747 38.4702 49.5135 38.5673C49.4524 38.6643 49.3655 38.7399 49.2637 38.7845C49.162 38.8292 49.0501 38.8408 48.9422 38.8181C48.8342 38.7953 48.735 38.7391 48.6572 38.6566C48.5793 38.5741 48.5263 38.469 48.5048 38.3546C48.4834 38.2402 48.4944 38.1216 48.5365 38.0138C48.5786 37.906 48.65 37.8139 48.7415 37.7491C48.833 37.6843 48.9407 37.6497 49.0507 37.6497C49.1238 37.6497 49.1962 37.6649 49.2637 37.6946C49.3313 37.7242 49.3926 37.7677 49.4443 37.8224C49.496 37.8772 49.537 37.9422 49.565 38.0138C49.5929 38.0854 49.6073 38.1621 49.6073 38.2395Z" fill="#3F56CC"/>
  <path opacity="0.75" d="M52.4125 38.2395C52.4125 38.3564 52.3798 38.4706 52.3185 38.5677C52.2571 38.6648 52.17 38.7404 52.0681 38.7849C51.9662 38.8294 51.8541 38.8409 51.746 38.8178C51.6379 38.7947 51.5387 38.7382 51.461 38.6553C51.3834 38.5724 51.3306 38.4669 51.3096 38.3522C51.2885 38.2375 51.3001 38.1188 51.3427 38.0111C51.3854 37.9034 51.4573 37.8115 51.5494 37.7472C51.6414 37.6828 51.7493 37.6489 51.8596 37.6497C52.0066 37.6507 52.1472 37.7133 52.2508 37.8238C52.3544 37.9343 52.4125 38.0838 52.4125 38.2395Z" fill="#3F56CC"/>
  <path opacity="0.75" d="M55.2209 38.2395C55.2209 38.3562 55.1882 38.4702 55.1271 38.5673C55.0659 38.6643 54.979 38.7399 54.8773 38.7845C54.7756 38.8292 54.6637 38.8408 54.5557 38.8181C54.4477 38.7953 54.3485 38.7391 54.2707 38.6566C54.1929 38.5741 54.1398 38.469 54.1184 38.3546C54.0969 38.2402 54.1079 38.1216 54.15 38.0138C54.1922 37.906 54.2635 37.8139 54.355 37.7491C54.4466 37.6843 54.5542 37.6497 54.6643 37.6497C54.8119 37.6497 54.9535 37.7118 55.0578 37.8224C55.1622 37.9331 55.2209 38.0831 55.2209 38.2395Z" fill="#3F56CC"/>
  <path d="M76.8404 43.8164H21.2605V48.419H76.8404V43.8164Z" fill="#FCFCFC"/>
  <path opacity="0.75" d="M76.8405 43.7659H72.3987V48.4733H76.8405V43.7659Z" fill="#3F56CC"/>
  <path d="M71.494 51.978H22.2126C21.6868 51.978 21.2605 52.4298 21.2605 52.987V68.8439C21.2605 69.4012 21.6868 69.8529 22.2126 69.8529H71.494C72.0199 69.8529 72.4461 69.4012 72.4461 68.8439V52.987C72.4461 52.4298 72.0199 51.978 71.494 51.978Z" fill="#FCFCFC"/>
  <path opacity="0.5" d="M39.5519 54.4573H23.5422V67.3764H39.5519V54.4573Z" fill="#3F56CC"/>
  <path opacity="0.3" d="M23.5422 54.4573V67.3764H39.5519V54.4573H23.5422ZM38.8232 54.8454L31.5471 60.6665L24.2746 54.8454H38.8232ZM23.9084 55.0394L31.2322 60.9149L23.9084 66.8021V55.0394ZM24.2746 66.9883L31.5471 61.1672L38.8232 66.9883H24.2746ZM31.851 60.9149L39.1748 55.0394V66.8021L31.851 60.9149Z" fill="#FCFCFC"/>
  <path opacity="0.75" d="M70.4176 54.6477H42.0381V56.332H70.4176V54.6477Z" fill="#3F56CC"/>
  <path opacity="0.75" d="M70.4176 57.6084H42.0381V59.2927H70.4176V57.6084Z" fill="#3F56CC"/>
  <path opacity="0.75" d="M55.0817 60.7366H42.0381V62.4208H55.0817V60.7366Z" fill="#3F56CC"/>
  <path d="M42.6172 55.0974H42.218V54.9421H43.1701V55.0974H42.7673V56.1801H42.6025L42.6172 55.0974Z" fill="#FCFCFC"/>
  <path d="M71.494 71.3816H22.2126C21.6868 71.3816 21.2605 71.8333 21.2605 72.3906V88.2475C21.2605 88.8048 21.6868 89.2565 22.2126 89.2565H71.494C72.0199 89.2565 72.4461 88.8048 72.4461 88.2475V72.3906C72.4461 71.8333 72.0199 71.3816 71.494 71.3816Z" fill="#FCFCFC"/>
  <path opacity="0.5" d="M39.5519 73.8616H23.5422V86.7807H39.5519V73.8616Z" fill="#3F56CC"/>
  <path opacity="0.3" d="M23.5422 73.8616V86.7807H39.5519V73.8616H23.5422ZM38.8232 74.2497L31.5471 80.0708L24.2746 74.2497H38.8232ZM23.9084 74.4437L31.2322 80.3192L23.9084 86.2064V74.4437ZM24.2746 86.3926L31.5471 80.5715L38.8232 86.3926H24.2746ZM31.851 80.3192L39.1748 74.4437V86.2064L31.851 80.3192Z" fill="#FCFCFC"/>
  <path opacity="0.75" d="M70.4176 74.0518H42.0381V75.736H70.4176V74.0518Z" fill="#3F56CC"/>
  <path opacity="0.75" d="M70.4176 77.0127H42.0381V78.697H70.4176V77.0127Z" fill="#3F56CC"/>
  <path opacity="0.75" d="M55.0817 80.1406H42.0381V81.8249H55.0817V80.1406Z" fill="#3F56CC"/>
  <path d="M42.6172 74.5022H42.218V74.3469H43.1701V74.5022H42.7673V75.5849H42.6025L42.6172 74.5022Z" fill="#FCFCFC"/>
  <path d="M76.3063 51.9973H74.3289V89.2606H76.3063V51.9973Z" fill="#FCFCFC"/>
  <path opacity="0.75" d="M76.3063 54.0232H74.3289V59.8599H76.3063V54.0232Z" fill="#3F56CC"/>
  <path d="M79.8107 1.70207V7.71341H18.2913V1.5546C18.2844 1.36448 18.313 1.17478 18.3754 0.996367C18.4377 0.817955 18.5327 0.654325 18.6548 0.514836C18.7769 0.375348 18.9237 0.262737 19.0869 0.183445C19.2501 0.104153 19.4265 0.0597367 19.6059 0.0527344H33.4404C33.6545 0.056781 33.8625 0.128356 34.038 0.258312C34.2134 0.388269 34.3483 0.570706 34.4255 0.782322L35.059 2.43554C35.1373 2.6457 35.2727 2.8265 35.4481 2.955C35.6234 3.08351 35.8308 3.15394 36.044 3.15737H62.0909C62.3032 3.15642 62.5103 3.08832 62.6858 2.96179C62.8613 2.83526 62.9972 2.65607 63.076 2.44718L63.7095 0.786203C63.7885 0.575607 63.9238 0.394028 64.0987 0.263739C64.2737 0.13345 64.4808 0.0601172 64.6945 0.0527344H78.324C78.7255 0.0688661 79.1053 0.250099 79.3828 0.558002C79.6604 0.865905 79.8139 1.27626 79.8107 1.70207Z" fill="#3F56CC"/>
  <path d="M18.2912 118.028H79.8106V124.385C79.8107 124.623 79.7661 124.858 79.6795 125.078C79.5928 125.297 79.4659 125.496 79.3061 125.663C79.1463 125.829 78.9567 125.961 78.7485 126.049C78.5403 126.138 78.3175 126.182 78.0932 126.178H19.8255C19.6218 126.181 19.4196 126.14 19.2311 126.058C19.0427 125.976 18.8717 125.854 18.7285 125.701C18.5852 125.547 18.4727 125.365 18.3976 125.164C18.3225 124.963 18.2863 124.748 18.2912 124.533V118.028Z" fill="#3F56CC"/>
  <path d="M15.1782 0.685303H4.02417V6.44051H15.1782V0.685303Z" fill="#3F56CC"/>
  <path d="M5.87354 2.25269H13.3328" stroke="#FCFCFC" stroke-width="0.215255" stroke-linecap="round" stroke-linejoin="round"/>
  <path d="M5.87354 3.56104H13.3328" stroke="#FCFCFC" stroke-width="0.215255" stroke-linecap="round" stroke-linejoin="round"/>
  <path d="M5.87354 4.86865H9.60498" stroke="#FCFCFC" stroke-width="0.215255" stroke-linecap="round" stroke-linejoin="round"/>
  <path d="M11.8311 6.20337L22.8386 16.3206" stroke="#3F56CC" stroke-width="0.215255" stroke-miterlimit="10"/>
  <path d="M22.8396 17.0274C23.2076 17.0274 23.506 16.7111 23.506 16.321C23.506 15.931 23.2076 15.6147 22.8396 15.6147C22.4715 15.6147 22.1731 15.931 22.1731 16.321C22.1731 16.7111 22.4715 17.0274 22.8396 17.0274Z" fill="#3F56CC"/>
  <path d="M14.0798 72.2119H2.92578V77.9671H14.0798V72.2119Z" fill="#3F56CC"/>
  <path d="M4.77515 73.78H12.2344" stroke="#FCFCFC" stroke-width="0.215255" stroke-linecap="round" stroke-linejoin="round"/>
  <path d="M4.77515 75.0874H12.2344" stroke="#FCFCFC" stroke-width="0.215255" stroke-linecap="round" stroke-linejoin="round"/>
  <path d="M4.77515 76.3955H8.50659" stroke="#FCFCFC" stroke-width="0.215255" stroke-linecap="round" stroke-linejoin="round"/>
  <path d="M21.7409 75.7942C22.109 75.7942 22.4074 75.478 22.4074 75.0879C22.4074 74.6978 22.109 74.3816 21.7409 74.3816C21.3728 74.3816 21.0745 74.6978 21.0745 75.0879C21.0745 75.478 21.3728 75.7942 21.7409 75.7942Z" fill="#3F56CC"/>
  <path d="M21.7402 75.0874H13.4131" stroke="#3F56CC" stroke-width="0.215255" stroke-miterlimit="10"/>
  <path d="M92.8721 27.9282H81.718V33.6834H92.8721V27.9282Z" fill="#3F56CC"/>
  <path d="M83.5642 29.4963H91.0271" stroke="#FCFCFC" stroke-width="0.215255" stroke-linecap="round" stroke-linejoin="round"/>
  <path d="M83.5642 30.8035H91.0271" stroke="#FCFCFC" stroke-width="0.215255" stroke-linecap="round" stroke-linejoin="round"/>
  <path d="M83.5642 32.1123H87.2957" stroke="#FCFCFC" stroke-width="0.215255" stroke-linecap="round" stroke-linejoin="round"/>
  <path d="M69.1433 45.8225C69.5113 45.8225 69.8097 45.5063 69.8097 45.1162C69.8097 44.7261 69.5113 44.4099 69.1433 44.4099C68.7752 44.4099 68.4768 44.7261 68.4768 45.1162C68.4768 45.5063 68.7752 45.8225 69.1433 45.8225Z" fill="#3F56CC"/>
  <path d="M69.1433 45.1167L85.2299 32.3567" stroke="#3F56CC" stroke-width="0.215255" stroke-miterlimit="10"/>
  <path d="M93.9629 104.35H82.8088V110.105H93.9629V104.35Z" fill="#3F56CC"/>
  <path d="M84.6587 105.92H92.1179" stroke="#FCFCFC" stroke-width="0.215255" stroke-linecap="round" stroke-linejoin="round"/>
  <path d="M84.6587 107.229H92.1179" stroke="#FCFCFC" stroke-width="0.215255" stroke-linecap="round" stroke-linejoin="round"/>
  <path d="M84.6587 108.537H88.3901" stroke="#FCFCFC" stroke-width="0.215255" stroke-linecap="round" stroke-linejoin="round"/>
  <path d="M70.9008 107.228C70.9008 107.368 70.8616 107.505 70.7882 107.621C70.7148 107.737 70.6105 107.828 70.4885 107.881C70.3665 107.935 70.2323 107.948 70.103 107.921C69.9736 107.893 69.8548 107.825 69.7618 107.726C69.6687 107.627 69.6055 107.501 69.5802 107.364C69.5549 107.226 69.5687 107.084 69.6197 106.955C69.6707 106.826 69.7567 106.716 69.8667 106.639C69.9768 106.562 70.106 106.521 70.238 106.522C70.3253 106.522 70.4118 106.54 70.4925 106.576C70.5731 106.611 70.6464 106.663 70.708 106.729C70.7696 106.795 70.8183 106.873 70.8514 106.958C70.8845 107.044 70.9013 107.136 70.9008 107.228Z" fill="#3F56CC"/>
  <path d="M70.2378 107.229H83.6329" stroke="#3F56CC" stroke-width="0.215255" stroke-miterlimit="10"/>
  <path d="M105.199 43.7239C103.965 43.786 98.7977 51.1401 98.7977 51.1401L96.8789 48.4934C96.8789 48.4934 93.9201 54.5862 95.3812 57.489C96.8422 60.3919 104.558 52.444 104.558 52.444L105.199 43.7239Z" fill="#3F56CC"/>
  <path opacity="0.2" d="M105.199 43.7239L104.69 49.5916L104.558 52.4595C104.558 52.4595 103.291 53.7635 101.687 55.1179C99.3323 57.101 96.2673 59.2121 95.3811 57.489C93.9163 54.5901 96.8788 48.4972 96.8788 48.4972L98.7976 51.1401V51.1168C99.1016 50.6744 104.005 43.7821 105.199 43.7239Z" fill="black"/>
  <path opacity="0.2" d="M104.69 49.5911L104.558 52.459C104.558 52.459 103.291 53.763 101.687 55.1173C101.533 51.6712 104.558 46.6572 104.558 46.6572L104.69 49.5911Z" fill="black"/>
  <path opacity="0.2" d="M98.7976 51.1395L99.0722 51.6983L98.2666 55.0164C98.2666 55.0164 100.486 52.8781 99.0722 50.7786L98.7976 51.1395Z" fill="black"/>
  <path d="M104.975 62.1148L115.382 62.9647C115.382 62.9647 115.525 56.3674 116.353 52.9484C116.623 51.8385 116.96 50.5927 117.389 49.1452C117.572 48.5282 117.755 47.884 117.989 47.2048C118.224 46.5257 118.403 45.8737 118.641 45.1558C117.219 44.6725 115.765 44.3002 114.291 44.042C112.735 43.7491 111.161 43.574 109.582 43.5181C107.542 43.5181 105.187 43.7432 105.187 43.7432C105.187 43.7432 104.854 43.8324 104.646 46.1182C104.462 48.2526 104.554 54.2873 104.975 62.1148Z" fill="#3F56CC"/>
  <path opacity="0.2" d="M104.975 62.1148L115.382 62.9647C115.382 62.9647 115.382 62.8289 115.382 62.5766C115.426 61.133 115.631 55.8784 116.341 52.9406C116.532 52.1645 116.759 51.2835 117.034 50.3289C117.14 49.9408 117.253 49.5527 117.378 49.1374C117.561 48.5243 117.744 47.8762 117.975 47.1971C118.205 46.5179 118.392 45.8659 118.63 45.148C118.063 44.954 117.491 44.7832 116.916 44.6241C116.049 44.3874 115.166 44.1933 114.28 44.0342C112.727 43.7447 111.157 43.5722 109.582 43.5181C108.267 43.5181 106.828 43.6034 105.967 43.6772C105.491 43.716 105.198 43.747 105.198 43.747C105.198 43.747 104.865 43.8324 104.653 46.1182C104.462 48.2565 104.554 54.2873 104.975 62.1148Z" fill="black"/>
  <path d="M110.446 45.955C113.031 45.6057 113.811 44.4337 113.811 44.4337C112.753 43.3782 112.943 41.8181 113.214 40.8479C113.296 40.5398 113.402 40.2399 113.533 39.9514L110.42 40.5685C110.495 41.0302 110.538 41.4972 110.548 41.9655C110.559 42.3083 110.53 42.6512 110.46 42.9862C110.248 43.9719 109.728 43.9836 109.728 43.9836C109.164 45.0702 110.446 45.955 110.446 45.955Z" fill="#EBB376"/>
  <path opacity="0.2" d="M110.548 41.9658C110.559 42.3086 110.529 42.6515 110.46 42.9865C111.698 42.8119 112.632 41.764 113.221 40.8559C113.303 40.5479 113.409 40.2479 113.54 39.9595L110.427 40.5765C110.499 41.0359 110.54 41.5002 110.548 41.9658Z" fill="black"/>
  <path d="M117.74 27.0828H118.641C118.439 25.9845 117.099 24.5021 115.638 24.894C115.896 24.6274 116.18 24.3894 116.484 24.1838C115.959 24.0645 115.414 24.0857 114.899 24.2456C114.383 24.4055 113.914 24.6991 113.532 25.0997C112.273 26.4735 111.614 29.322 112.716 30.4358C112.859 30.5794 113.031 30.5367 113.218 30.3698C114.166 31.7242 115.495 30.4746 115.726 30.4358C115.957 30.397 115.781 31.1421 115.781 31.1421C116.543 31.1421 116.726 30.1176 116.726 30.1176L117.458 31.1421C117.698 30.8749 117.872 30.5492 117.964 30.1938C118.057 29.8385 118.065 29.4644 117.989 29.1047L118.648 29.5549C118.769 27.7115 117.74 27.0828 117.74 27.0828Z" fill="#263238"/>
  <path d="M106.835 36.1873C106.835 36.1873 105.305 31.9184 109.278 29.8112C113.251 27.7039 115.565 30.6921 115.712 33.5794C115.858 36.4667 114.979 38.9543 113.683 39.451C112.387 39.9478 106.835 36.1873 106.835 36.1873Z" fill="#263238"/>
  <path d="M109.999 31.8062C107.319 32.2176 106.663 33.8708 106.865 36.828C107.117 40.5225 108.238 43.0062 111.482 41.71C115.891 39.952 114.448 31.1271 109.999 31.8062Z" fill="#EBB376"/>
  <path d="M108.574 36.4043C108.419 36.8614 108.211 37.2967 107.956 37.7005C108.049 37.8071 108.169 37.8837 108.302 37.9214C108.435 37.9592 108.575 37.9566 108.706 37.9139L108.574 36.4043Z" fill="#D58745"/>
  <path d="M110.182 35.9191C110.207 36.152 110.35 36.3266 110.497 36.3072C110.643 36.2878 110.742 36.0821 110.713 35.8454C110.683 35.6087 110.548 35.4379 110.398 35.4573C110.248 35.4767 110.156 35.6863 110.182 35.9191Z" fill="#263238"/>
  <path d="M110.468 35.4654L109.963 35.3257C109.963 35.3257 110.252 35.7254 110.468 35.4654Z" fill="#263238"/>
  <path d="M107.433 36.2221C107.462 36.455 107.601 36.6296 107.747 36.6102C107.894 36.5908 107.993 36.389 107.967 36.1523C107.942 35.9155 107.799 35.7448 107.652 35.7642C107.506 35.7836 107.407 35.9893 107.433 36.2221Z" fill="#263238"/>
  <path d="M107.715 35.7567L107.213 35.6169C107.213 35.6169 107.499 36.0283 107.715 35.7567Z" fill="#263238"/>
  <path d="M109.944 33.9558C110.152 33.8955 110.371 33.8865 110.583 33.9296C110.795 33.9727 110.995 34.0666 111.167 34.2042" stroke="#263238" stroke-width="0.152393" stroke-linecap="round" stroke-linejoin="round"/>
  <path d="M107.985 34.1309C107.795 34.1087 107.604 34.1321 107.424 34.1993C107.245 34.2665 107.082 34.3758 106.948 34.519" stroke="#263238" stroke-width="0.152393" stroke-linecap="round" stroke-linejoin="round"/>
  <path d="M113.581 36.1443C113.581 36.1443 112.01 34.0021 111.955 32.1743C111.955 32.1743 106.326 30.6879 106.846 36.4432C106.846 36.4432 105.634 31.4486 110.226 30.622C114.818 29.7954 115.774 36.9515 113.683 39.4469C113.683 39.4508 114.555 37.4871 113.581 36.1443Z" fill="#263238"/>
  <path d="M113.225 36.8115C113.206 36.481 113.311 36.1559 113.516 35.9067C113.722 35.6575 114.012 35.5043 114.324 35.4804C115.166 35.4493 115.81 37.1957 113.804 37.9447C113.525 38.0534 113.317 37.7701 113.225 36.8115Z" fill="#EBB376"/>
  <path d="M109.278 39.3963C109.278 39.3963 110.435 39.4972 110.743 38.364" stroke="#263238" stroke-width="0.152393" stroke-linecap="round" stroke-linejoin="round"/>
  <path d="M103.316 48.5826C103.321 48.623 103.318 48.6639 103.306 48.7027C103.295 48.7415 103.275 48.7772 103.25 48.8074C103.224 48.8376 103.192 48.8616 103.157 48.8777C103.122 48.8938 103.084 48.9017 103.045 48.9008H100.076C99.994 48.8953 99.9165 48.8609 99.8554 48.8033C99.7944 48.7456 99.7533 48.6679 99.7388 48.5826L99.076 42.3734C99.0698 42.3309 99.0719 42.2875 99.0822 42.2459C99.0925 42.2043 99.1107 42.1653 99.1358 42.1315C99.1609 42.0977 99.1922 42.0697 99.2279 42.0492C99.2636 42.0287 99.3028 42.0162 99.3433 42.0125H102.317C102.402 42.0241 102.482 42.0661 102.542 42.1316C102.603 42.1971 102.641 42.2823 102.65 42.3734L103.316 48.5826Z" fill="#263238"/>
  <path opacity="0.5" d="M102.32 42.3224L102.994 48.6015C103.003 48.6382 103.003 48.6766 102.995 48.7135C102.987 48.7504 102.971 48.7849 102.948 48.814C102.925 48.8431 102.896 48.8661 102.864 48.8811C102.831 48.8961 102.795 48.9027 102.76 48.9003H100.24C100.072 48.9003 99.7605 48.7994 99.7421 48.6209L99.0684 42.3224C99.0684 42.1477 99.3393 42.0042 99.5078 42.0042H102.027C102.105 42.0071 102.179 42.0419 102.234 42.1011C102.288 42.1604 102.319 42.2396 102.32 42.3224Z" fill="#FCFCFC"/>
  <path d="M97.0879 49.0988L98.6405 46.3124C98.6267 45.7066 98.6697 45.1008 98.7687 44.504C98.9042 44.1586 100.424 43.3824 100.72 43.4988C101.017 43.6153 101.127 46.4871 100.856 46.8751C100.585 47.2632 99.6366 47.694 99.6366 47.694L99.7025 48.2373L98.798 51.1401L97.0879 49.0988Z" fill="#EBB376"/>
  <path d="M96.4653 48.7845L96.9817 48.2373L99.4205 51.1401L99.0726 52.2888L96.4653 48.7845Z" fill="#3F56CC"/>
  <path opacity="0.2" d="M108.824 53.4179C108.824 53.4179 111.691 60.3412 115.393 62.5843C115.437 61.1406 115.642 55.8861 116.353 52.9483C116.543 52.1721 116.77 51.2912 117.045 50.3365L115.917 48.9006C115.917 48.9006 115.133 51.4658 115.481 53.6895L111.164 50.8915L108.824 53.4179Z" fill="black"/>
  <path d="M111.599 51.8265L108.076 48.9004C107.878 48.2656 107.633 47.648 107.344 47.0531C107.132 46.7814 104.048 45.5745 103.785 45.5435C103.521 45.5124 103.785 48.2212 104.173 48.683C104.561 49.1448 107.044 50.0568 107.044 50.0568L110.731 53.7358L111.599 51.8265Z" fill="#EBB376"/>
  <path d="M118.641 45.1404C120.71 46.2386 121.629 58.6145 118.037 60.7528C114.444 62.8911 109.083 53.2202 109.083 53.2202L111.171 50.8917C111.171 50.8917 115.539 54.7725 116.07 54.4155C116.601 54.0584 115.997 50.2669 115.997 50.2669C115.997 50.2669 115.382 49.1027 116.675 47.3175C117.967 45.5323 118.641 45.1404 118.641 45.1404Z" fill="#3F56CC"/>
  <path opacity="0.2" d="M118.641 45.1404C120.71 46.2386 121.629 58.6145 118.037 60.7528C114.444 62.8911 109.083 53.2202 109.083 53.2202L111.171 50.8917C111.171 50.8917 115.539 54.7725 116.07 54.4155C116.601 54.0584 115.997 50.2669 115.997 50.2669C115.997 50.2669 115.382 49.1027 116.675 47.3175C117.967 45.5323 118.641 45.1404 118.641 45.1404Z" fill="black"/>
  <path d="M109.04 54.0929L108.417 53.6932L110.757 50.0569L111.618 50.5653L109.04 54.0929Z" fill="#3F56CC"/>
  <path d="M105.967 43.6578C105.979 44.1076 106.13 44.5408 106.395 44.8919C106.592 45.1495 106.825 45.3722 107.088 45.5516C107.758 46.0212 108.801 46.4325 110.42 46.6576C111.306 46.7921 112.205 46.8013 113.093 46.6848C113.481 46.6294 113.865 46.5398 114.239 46.417C115.279 46.1003 116.211 45.4755 116.927 44.6163C116.356 44.4611 115.777 44.3214 115.195 44.205C115.044 44.1687 114.893 44.1377 114.745 44.1118L114.29 44.0264C112.734 43.739 111.16 43.5691 109.581 43.5181C109.01 43.5181 108.424 43.5181 107.864 43.553C107.619 43.553 107.377 43.5763 107.15 43.5957C106.699 43.5996 106.293 43.6306 105.967 43.6578Z" fill="#EBB376"/>
  <path d="M113.112 46.685C113.5 46.6296 113.884 46.54 114.258 46.4172C114.355 45.5933 114.688 44.821 115.214 44.2052C115.062 44.169 114.912 44.1379 114.763 44.1121C113.844 44.7757 113.332 45.9904 113.112 46.685Z" fill="#263238"/>
  <path d="M106.396 44.8917C106.592 45.1493 106.825 45.372 107.088 45.5515C107.113 44.8026 107.388 44.0874 107.864 43.5334C107.619 43.5334 107.377 43.5567 107.15 43.5761C106.824 43.9613 106.568 44.4074 106.396 44.8917Z" fill="#263238"/>
  <path d="M104.037 20.8152H107.805C108.078 20.8152 108.34 20.9301 108.533 21.1346C108.726 21.3391 108.834 21.6165 108.834 21.9057V25.0103C108.834 25.2995 108.726 25.5769 108.533 25.7814C108.34 25.9859 108.078 26.1008 107.805 26.1008H106.421L105.92 27.3854L105.422 26.1163H104.037C103.764 26.1163 103.503 26.0015 103.31 25.7969C103.117 25.5924 103.008 25.3151 103.008 25.0258V21.9212C103.006 21.7767 103.032 21.6332 103.082 21.4991C103.133 21.365 103.209 21.243 103.305 21.1401C103.4 21.0371 103.514 20.9554 103.64 20.8997C103.766 20.8439 103.901 20.8152 104.037 20.8152Z" fill="#3F56CC"/>
  <path d="M107.33 23.5162H106.616C106.482 22.9599 106.426 22.386 106.447 21.8125C106.326 21.7936 106.202 21.7936 106.081 21.8125C105.964 21.8513 105.924 23.1553 105.924 23.1553C105.473 23.1164 105.02 23.1073 104.569 23.1281C104.525 23.163 104.517 23.3648 104.514 23.5162C104.513 23.5566 104.526 23.5959 104.55 23.6271C104.574 23.6584 104.608 23.6796 104.646 23.6869H104.689L104.755 24.9831C104.758 25.0319 104.778 25.0777 104.811 25.1115C104.845 25.1454 104.889 25.1646 104.935 25.1655H106.132C106.251 25.1653 106.367 25.1274 106.465 25.0568L106.597 24.9637L107.33 25.018V23.5162Z" fill="#3F56CC"/>
  <path opacity="0.7" d="M107.33 23.5162H106.616C106.482 22.9599 106.426 22.386 106.447 21.8125C106.326 21.7936 106.202 21.7936 106.081 21.8125C105.964 21.8513 105.924 23.1553 105.924 23.1553C105.473 23.1164 105.02 23.1073 104.569 23.1281C104.525 23.163 104.517 23.3648 104.514 23.5162C104.513 23.5566 104.526 23.5959 104.55 23.6271C104.574 23.6584 104.608 23.6796 104.646 23.6869H104.689L104.755 24.9831C104.758 25.0319 104.778 25.0777 104.811 25.1115C104.845 25.1454 104.889 25.1646 104.935 25.1655H106.132C106.251 25.1653 106.367 25.1274 106.465 25.0568L106.597 24.9637L107.33 25.018V23.5162Z" fill="#FCFCFC"/>
  <path d="M95.1973 121.429L97.3907 121.832L98.2879 118.72L99.1082 115.864L96.5815 114.944L95.8491 118.374L95.1973 121.429Z" fill="#E4897B"/>
  <path d="M97.8857 121.77C97.9224 121.518 94.9196 121.169 94.9196 121.169C94.9196 121.169 92.7628 122.768 90.9172 122.876C89.0716 122.985 89.8699 124.277 91.873 124.626L96.7799 125.527C98.1714 125.791 97.5013 124.39 97.8857 121.77Z" fill="#263238"/>
  <path d="M92.9712 121.553C92.938 121.502 92.9202 121.442 92.9202 121.38C92.9202 121.318 92.938 121.258 92.9712 121.207C92.9901 121.165 93.0171 121.127 93.0505 121.097C93.0839 121.066 93.123 121.043 93.1653 121.029C93.3907 120.976 93.6256 120.993 93.8427 121.076C93.6267 120.897 93.4399 120.687 93.4766 120.528C93.4766 120.424 93.5681 120.346 93.7146 120.307C93.8346 120.273 93.9624 120.292 94.0698 120.358C94.436 120.606 94.5715 121.37 94.5751 121.405C94.5788 121.418 94.5788 121.432 94.5751 121.444V121.464C94.5751 121.464 94.5751 121.464 94.5568 121.487C94.5485 121.49 94.5395 121.49 94.5312 121.487C94.1804 121.593 93.8191 121.656 93.4546 121.673C93.2848 121.701 93.1114 121.658 92.9712 121.553ZM93.2056 121.184C93.1833 121.191 93.1626 121.203 93.1449 121.219C93.1272 121.235 93.113 121.255 93.103 121.277C93.0518 121.394 93.0847 121.429 93.103 121.444C93.2239 121.588 93.7951 121.518 94.2675 121.405C93.9398 121.229 93.5721 121.152 93.2056 121.184ZM93.7256 120.466C93.6816 120.466 93.6084 120.505 93.6047 120.548C93.5864 120.691 93.9709 121.01 94.381 121.262C94.3293 120.971 94.1906 120.706 93.9855 120.505C93.9352 120.471 93.8769 120.452 93.8171 120.451C93.7862 120.452 93.7555 120.458 93.7256 120.466Z" fill="#3F56CC"/>
  <path opacity="0.2" d="M95.835 118.448L98.2811 118.782L99.105 115.895L96.5783 114.959L95.835 118.448Z" fill="black"/>
  <path d="M109.838 122.406H112.06L112.427 119.178L112.76 116.217L110.116 115.77L109.966 119.282L109.838 122.406Z" fill="#E4897B"/>
  <path d="M112.541 122.255C112.541 122.003 109.52 122.201 109.52 122.201C109.52 122.201 107.663 124.164 105.858 124.607C104.053 125.049 105.063 126.159 107.077 126.159H112.058C113.478 126.179 112.599 124.906 112.541 122.255Z" fill="#263238"/>
  <path d="M107.666 122.93C107.622 122.89 107.592 122.836 107.578 122.776C107.565 122.716 107.57 122.653 107.593 122.597C107.604 122.551 107.624 122.508 107.652 122.472C107.68 122.435 107.715 122.405 107.754 122.383C107.967 122.291 108.201 122.264 108.428 122.306C108.183 122.17 107.97 122.003 107.959 121.84C107.948 121.677 108.021 121.642 108.157 121.576C108.218 121.545 108.285 121.529 108.353 121.529C108.421 121.529 108.488 121.545 108.549 121.576C108.959 121.751 109.212 122.484 109.223 122.515C109.23 122.536 109.23 122.56 109.223 122.581C109.216 122.591 109.207 122.599 109.197 122.604C108.803 122.807 108.38 122.939 107.945 122.992C107.848 123.008 107.749 122.986 107.666 122.93ZM107.831 122.542C107.811 122.553 107.793 122.569 107.778 122.587C107.764 122.606 107.753 122.628 107.747 122.651C107.718 122.775 107.747 122.806 107.747 122.818C107.89 122.938 108.443 122.767 108.886 122.569C108.544 122.455 108.18 122.44 107.831 122.527V122.542ZM108.227 121.739C108.186 121.762 108.117 121.801 108.12 121.844C108.12 121.987 108.56 122.232 109.007 122.406C108.905 122.129 108.723 121.892 108.487 121.731C108.448 121.715 108.407 121.706 108.366 121.704C108.319 121.7 108.271 121.706 108.227 121.723V121.739Z" fill="#3F56CC"/>
  <path opacity="0.2" d="M109.966 119.356L112.427 119.244L112.76 116.248L110.116 115.786L109.966 119.356Z" fill="black"/>
  <path d="M95.6296 116.635L99.2329 117.295C102.873 107.865 105.458 99.9908 107.289 93.4555C108.274 89.9318 109.039 86.7961 109.629 84.0136L109.45 94.2821V117.61H113.111C122.024 73.3996 115.715 63.3096 115.715 63.3096L105.055 61.4119C104.635 63.4596 104.338 65.5335 104.165 67.6211L103.682 71.2885L99.5259 93.6651L95.6296 116.635Z" fill="#3F56CC"/>
  <path opacity="0.6" d="M95.6296 116.635L99.2329 117.295C102.873 107.865 105.458 99.9908 107.289 93.4555C108.274 89.9318 109.039 86.7961 109.629 84.0136L109.45 94.2821V117.61H113.111C122.024 73.3996 115.715 63.3096 115.715 63.3096L105.055 61.4119C104.635 63.4596 104.338 65.5335 104.165 67.6211L103.682 71.2885L99.5259 93.6651L95.6296 116.635Z" fill="#FCFCFC"/>
  <path d="M99.8 116.833L95.3289 115.289L95.3874 117.268L99.0859 118.498L99.8 116.833Z" fill="#3F56CC"/>
  <path d="M113.599 117.048L108.941 116.337L109.329 118.278L113.174 118.817L113.599 117.048Z" fill="#3F56CC"/>
  <path d="M115.715 61.653V63.3062L104.854 62.4408V60.481L115.715 61.653Z" fill="#263238"/>
  <path d="M107.205 62.7628L109.578 62.984L109.739 61.1057L107.366 60.8845L107.205 62.7628Z" fill="#FCFCFC"/>
  <path d="M111.929 63.8106L112.467 63.8417L112.606 60.9854L112.068 60.9543L111.929 63.8106Z" fill="#3F56CC"/>
  <path opacity="0.6" d="M111.929 63.8106L112.467 63.8417L112.606 60.9854L112.068 60.9543L111.929 63.8106Z" fill="#FCFCFC"/>
  <path d="M105.294 63.0538L105.832 63.0809L105.971 60.2247L105.433 60.1975L105.294 63.0538Z" fill="#3F56CC"/>
  <path opacity="0.6" d="M105.294 63.0538L105.832 63.0809L105.971 60.2247L105.433 60.1975L105.294 63.0538Z" fill="#FCFCFC"/>
  <path opacity="0.2" d="M107.286 93.4563C108.271 89.9325 109.036 86.7968 109.626 84.0143C109.576 80.7237 109.346 77.4389 108.937 74.1765C108.937 74.1765 107.377 86.8667 107.286 93.4563Z" fill="black"/>
</svg>